<svg width="329" height="299" viewBox="0 0 329 299" fill="none" xmlns="http://www.w3.org/2000/svg">
<path d="M48.26 137.354C-15.7879 174.331 -15.7812 234.254 48.26 271.264C112.301 308.275 216.145 308.241 280.193 271.264C344.241 234.288 344.234 174.365 280.193 137.354C216.152 100.344 112.308 100.378 48.26 137.354Z" fill="#FAFAFA"/>
<path d="M318.269 191.829L307.758 179.891L196.956 115.816C194.197 113.932 190.065 117.754 188.457 121.61C188.207 122.185 188.017 122.785 187.892 123.4C187.582 125.001 187.851 126.448 189.042 127.262L300.746 191.862L316.075 194.89L320.247 195.718C320.372 195.746 320.502 195.733 320.618 195.682C320.735 195.631 320.832 195.544 320.896 195.433C320.96 195.323 320.987 195.195 320.973 195.068C320.959 194.942 320.905 194.823 320.819 194.729L318.269 191.829Z" fill="#E0E0E0"/>
<path d="M131.793 109.591L9.2558 191.787C7.4322 193.012 7.43893 194.863 9.2558 195.926L174.927 291.48C175.966 291.996 177.12 292.24 178.28 292.188C179.439 292.137 180.566 291.791 181.555 291.183L304.093 208.987C305.917 207.762 305.91 205.905 304.093 204.842L138.422 109.295C137.382 108.779 136.229 108.535 135.069 108.587C133.91 108.639 132.783 108.984 131.793 109.591Z" fill="#E0E0E0"/>
<path d="M201.852 128.883L203.285 129.704L205.008 130.7L302.721 187.225C302.183 186.02 302.6 183.618 303.832 181.317C305.258 178.625 307.445 176.505 309.027 176.425L211.777 120.169L208.473 118.271C210.546 119.617 203.938 130.202 201.852 128.883Z" fill="#455A64"/>
<path d="M211.632 120.074L208.429 118.243C207.521 117.685 205.798 119.32 204.284 121.48C202.265 124.347 200.637 128.142 201.841 128.882L204.203 130.228L205.051 130.692C203.847 129.952 205.475 126.15 207.494 123.29C208.94 121.224 210.603 119.629 211.531 120.013C211.57 120.023 211.605 120.044 211.632 120.074Z" fill="#EBEBEB"/>
<path d="M210.826 119.624C208.713 118.319 202.132 128.958 204.239 130.263L207.435 132.1C205.329 130.795 211.91 120.156 214.023 121.461L210.826 119.624Z" fill="#8ED06C"/>
<path d="M217.066 123.218L213.91 121.401C211.851 120.102 205.391 130.31 207.141 131.932C207.175 131.966 207.213 131.996 207.255 132.02L210.445 133.823C208.379 132.517 214.974 121.892 217.066 123.218Z" fill="#EBEBEB"/>
<path d="M208.473 118.251H208.425C207.524 117.672 205.801 119.32 204.287 121.487C202.268 124.3 200.667 128.021 201.791 128.849L188.46 121.184C187.39 120.451 187.114 119.166 187.424 117.706C188.164 113.816 192.713 108.884 195.593 110.849L208.473 118.251Z" fill="#8ED06C"/>
<path d="M317.545 187.696C316.441 189.189 316.549 189.923 316.549 189.923L302.72 187.198C301.374 185.105 302.249 181.7 304.147 179.277L304.753 179.621L317.545 187.696Z" fill="#8ED06C"/>
<path d="M320.309 190.67L316.548 189.936C316.548 189.936 316.379 189.203 317.543 187.709L320.827 189.782C320.919 189.888 320.966 190.026 320.959 190.167C320.951 190.307 320.89 190.439 320.787 190.535C320.725 190.596 320.649 190.641 320.565 190.664C320.482 190.688 320.394 190.69 320.309 190.67Z" fill="#37474F"/>
<path d="M309.027 176.41L318.515 187.177C318.139 187.243 317.796 187.433 317.539 187.715L304.754 179.64L304.148 179.297C305.447 177.635 307.21 176.43 309.027 176.41Z" fill="#FFA8A7"/>
<path d="M317.547 187.695C317.66 187.538 317.806 187.409 317.974 187.316C318.143 187.223 318.33 187.168 318.523 187.156L320.831 189.767L317.547 187.695Z" fill="#455A64"/>
<path opacity="0.2" d="M304.151 179.291L188.766 114.463C188.128 115.456 187.673 116.554 187.42 117.706C187.138 119.153 187.387 120.445 188.463 121.185L201.854 128.883L203.287 129.704L205.01 130.7L302.724 187.225C301.035 184.614 302.859 180.765 304.151 179.291Z" fill="black"/>
<path d="M134.943 113.738L18.7582 185.282L16.3828 189.461V192.745C16.3926 193.561 16.6214 194.359 17.0452 195.056C17.4689 195.754 18.0722 196.324 18.7918 196.709L172.721 285.708C173.945 286.375 175.333 286.683 176.725 286.596C178.143 286.55 179.522 286.119 180.715 285.351L294.276 209.137V205.86L134.943 113.738Z" fill="#263238"/>
<path d="M176.704 283.319C175.314 283.405 173.928 283.094 172.707 282.424L18.7918 193.424C18.0717 193.041 17.4681 192.47 17.0442 191.773C16.6204 191.075 16.3919 190.277 16.3828 189.461C16.3982 188.621 16.6237 187.799 17.0386 187.069C17.4536 186.339 18.0448 185.725 18.7582 185.282L129.789 110.764L294.263 205.867L180.695 282.067C179.502 282.836 178.123 283.269 176.704 283.319Z" fill="#8ED06C"/>
<path d="M129.757 101.141L19.9708 174.811L18.8672 176.568L18.921 189.353C18.9456 189.705 19.064 190.045 19.264 190.336C19.4639 190.627 19.7382 190.859 20.0582 191.008L173.954 280.001C174.81 280.427 175.761 280.628 176.717 280.586C177.673 280.543 178.602 280.259 179.418 279.759L289.21 206.088L289.15 193.303L129.757 101.141Z" fill="#EBEBEB"/>
<path d="M289.158 193.31L287.813 194.232L269.947 206.216L266.623 208.457L179.4 267.001C178.584 267.5 177.654 267.784 176.699 267.827C175.743 267.869 174.792 267.668 173.935 267.243L19.9795 178.223C18.4789 177.348 18.4722 175.814 19.9795 174.805L21.4398 173.829L129.779 101.154L287.792 192.516L288.122 192.718L289.158 193.31Z" fill="#F0F0F0"/>
<path d="M176.636 267.814L176.69 280.6C175.755 280.656 174.823 280.451 173.999 280.008L20.0426 191.001C19.723 190.852 19.4493 190.62 19.2504 190.329C19.0515 190.037 18.9346 189.698 18.9121 189.346L18.8516 176.561C18.8795 176.911 18.9985 177.248 19.1968 177.538C19.3951 177.829 19.6658 178.062 19.9821 178.216L173.911 267.222C174.746 267.672 175.69 267.877 176.636 267.814Z" fill="#E0E0E0"/>
<path d="M289.162 191.607L269.398 204.864L266.296 206.943L179.376 265.271C178.56 265.772 177.631 266.057 176.676 266.1C175.72 266.144 174.769 265.944 173.912 265.52L36.0719 185.82C34.8338 185.147 33.6831 184.474 32.6064 183.801C26.9943 180.369 23.6096 177.227 21.4361 173.815L21.1736 173.385C20.9996 173.122 20.8806 172.827 20.8237 172.517C20.7188 171.858 20.854 171.184 21.2049 170.617C21.5557 170.05 22.0987 169.628 22.7348 169.428C26.3644 168.111 29.8338 166.388 33.0775 164.294L33.2121 164.206L129.755 99.418L289.162 191.607Z" fill="white"/>
<path d="M129.782 100.219L287.917 191.641L269.075 204.298L265.98 206.378L179.032 264.713C178.237 265.199 177.32 265.448 176.388 265.433C175.652 265.451 174.925 265.28 174.275 264.935L36.3747 185.228C35.251 184.609 34.1205 183.956 32.9362 183.243C27.6538 180.006 24.1883 176.904 21.9879 173.472L21.8667 173.277L21.7187 173.041C21.5874 172.837 21.5003 172.608 21.463 172.369C21.3915 171.869 21.5015 171.359 21.7731 170.934C22.0447 170.508 22.4599 170.193 22.9434 170.047C26.6192 168.715 30.1319 166.97 33.4139 164.845L33.4947 164.798H33.5351L129.762 100.246M129.762 99.4516L33.2121 164.22L33.0775 164.307C29.8338 166.402 26.3644 168.124 22.7348 169.441C22.0987 169.641 21.5557 170.063 21.2049 170.63C20.854 171.197 20.7188 171.872 20.8237 172.53C20.8806 172.84 20.9996 173.135 21.1736 173.398L21.4361 173.829C23.6096 177.24 26.9943 180.383 32.6064 183.815C33.6831 184.488 34.8338 185.161 36.0719 185.834L173.912 265.52C174.664 265.924 175.508 266.126 176.361 266.105C177.425 266.122 178.472 265.833 179.376 265.271L266.296 206.943L269.398 204.864L289.162 191.607L129.755 99.418L129.762 99.4516Z" fill="#E0E0E0"/>
<path opacity="0.1" d="M268.633 191.021C267.234 191.97 267.24 193.403 268.633 194.224C269.434 194.623 270.323 194.812 271.217 194.771C272.11 194.731 272.979 194.464 273.741 193.995C275.147 193.046 275.147 191.613 273.741 190.792C272.941 190.391 272.051 190.202 271.157 190.242C270.263 190.282 269.394 190.55 268.633 191.021Z" fill="black"/>
<path d="M284.99 179.933C283.039 178.809 280.603 179.105 278.12 180.76C274.284 183.351 270.973 188.882 269.547 194.582C270.157 194.765 270.799 194.82 271.431 194.743C272.777 189.663 275.677 184.791 279.075 182.496C279.994 181.831 281.075 181.424 282.204 181.319C282.848 181.281 283.488 181.43 284.048 181.749C285.697 182.705 286.652 185.161 286.666 188.479C286.672 189.027 286.646 189.575 286.585 190.121L288.382 191.164C288.501 190.244 288.562 189.318 288.563 188.391C288.543 184.333 287.245 181.238 284.99 179.933Z" fill="#263238"/>
<path d="M288.214 192.232C288.196 192.396 288.167 192.558 288.127 192.717L287.797 192.515L288.214 192.232Z" fill="#263238"/>
<path opacity="0.1" d="M253.211 182.099C251.812 183.048 251.818 184.481 253.211 185.302C254.012 185.701 254.901 185.89 255.795 185.85C256.688 185.81 257.557 185.542 258.319 185.073C259.725 184.124 259.725 182.691 258.319 181.87C257.518 181.47 256.629 181.282 255.735 181.322C254.842 181.362 253.973 181.629 253.211 182.099Z" fill="black"/>
<path d="M269.568 171.016C267.617 169.885 265.181 170.182 262.705 171.837C258.862 174.428 255.552 179.959 254.125 185.665C254.737 185.842 255.377 185.896 256.009 185.827C257.355 180.74 260.262 175.868 263.653 173.573C264.572 172.908 265.653 172.501 266.783 172.395C267.427 172.359 268.067 172.511 268.626 172.833C270.275 173.782 271.23 176.238 271.244 179.562C271.251 180.11 271.224 180.659 271.163 181.204L272.96 182.247C273.086 181.328 273.147 180.402 273.142 179.475C273.121 175.403 271.823 172.321 269.568 171.016Z" fill="#263238"/>
<path opacity="0.1" d="M237.779 173.183C236.386 174.125 236.386 175.558 237.779 176.386C238.581 176.782 239.469 176.969 240.362 176.929C241.255 176.889 242.124 176.623 242.886 176.157C244.3 175.208 244.293 173.775 242.886 172.954C242.086 172.554 241.197 172.366 240.303 172.406C239.409 172.446 238.541 172.713 237.779 173.183Z" fill="black"/>
<path d="M254.139 162.127C252.194 160.997 249.758 161.3 247.275 162.948C243.433 165.539 240.129 171.07 238.695 176.777C239.307 176.953 239.947 177.007 240.579 176.938C241.925 171.851 244.832 166.979 248.23 164.684C249.146 164.018 250.225 163.611 251.353 163.507C251.999 163.474 252.64 163.626 253.203 163.944C254.845 164.893 255.807 167.349 255.821 170.673C255.825 171.224 255.796 171.775 255.733 172.322L257.537 173.358C257.658 172.441 257.716 171.517 257.712 170.593C257.692 166.481 256.413 163.399 254.139 162.127Z" fill="#263238"/>
<path opacity="0.1" d="M222.352 164.26C220.952 165.209 220.959 166.642 222.352 167.463C223.152 167.862 224.041 168.051 224.934 168.012C225.828 167.973 226.697 167.708 227.459 167.241C228.866 166.286 228.866 164.852 227.459 164.031C226.658 163.633 225.769 163.446 224.876 163.486C223.983 163.526 223.114 163.792 222.352 164.26Z" fill="black"/>
<path d="M238.717 153.178C236.765 152.047 234.329 152.35 231.853 154.005C228.011 156.589 224.7 162.121 223.273 167.827C223.885 168.003 224.525 168.058 225.158 167.989C226.47 162.901 229.404 158.029 232.809 155.735C233.724 155.068 234.803 154.662 235.931 154.557C236.577 154.525 237.219 154.676 237.781 154.995C239.423 155.943 240.379 158.399 240.392 161.724C240.399 162.274 240.372 162.825 240.312 163.372L242.115 164.409C242.233 163.491 242.291 162.568 242.29 161.643C242.283 157.565 240.971 154.483 238.717 153.178Z" fill="#263238"/>
<path opacity="0.1" d="M206.93 155.343C205.53 156.292 205.537 157.725 206.93 158.546C207.729 158.945 208.617 159.134 209.51 159.094C210.403 159.054 211.27 158.787 212.031 158.317C213.444 157.369 213.437 155.935 212.031 155.114C211.232 154.715 210.343 154.526 209.451 154.566C208.558 154.606 207.69 154.873 206.93 155.343Z" fill="black"/>
<path d="M223.287 144.256C221.336 143.125 218.9 143.428 216.423 145.083C212.581 147.674 209.27 153.199 207.844 158.905C208.454 159.088 209.095 159.143 209.728 159.067C211.04 153.986 213.974 149.114 217.372 146.82C218.292 146.154 219.372 145.745 220.501 145.635C221.145 145.604 221.784 145.755 222.345 146.073C223.994 147.028 224.949 149.484 224.963 152.802C224.969 153.35 224.942 153.899 224.882 154.444L226.679 155.48C226.8 154.563 226.858 153.639 226.854 152.714C226.84 148.67 225.535 145.561 223.287 144.256Z" fill="#263238"/>
<path opacity="0.1" d="M191.5 146.421C190.101 147.37 190.107 148.803 191.5 149.624C192.3 150.024 193.188 150.212 194.08 150.172C194.973 150.132 195.841 149.865 196.601 149.396C198.014 148.447 198.007 147.014 196.601 146.193C195.801 145.794 194.914 145.606 194.021 145.646C193.129 145.686 192.261 145.953 191.5 146.421Z" fill="black"/>
<path d="M207.857 135.331C205.906 134.207 203.47 134.51 200.994 136.159C197.151 138.749 193.827 144.281 192.414 150.014C193.026 150.19 193.666 150.245 194.298 150.176C195.61 145.088 198.544 140.216 201.943 137.922C202.861 137.256 203.942 136.85 205.072 136.744C205.715 136.71 206.355 136.862 206.915 137.182C208.564 138.13 209.52 140.587 209.533 143.911C209.54 144.459 209.513 145.007 209.452 145.553L211.249 146.596C211.369 145.679 211.429 144.755 211.431 143.83C211.41 139.725 210.112 136.637 207.857 135.331Z" fill="#263238"/>
<path opacity="0.1" d="M176.078 137.505C174.679 138.454 174.686 139.887 176.078 140.708C176.878 141.108 177.766 141.296 178.659 141.256C179.551 141.216 180.419 140.949 181.179 140.48C182.592 139.531 182.586 138.097 181.179 137.277C180.38 136.877 179.492 136.688 178.599 136.728C177.706 136.768 176.839 137.036 176.078 137.505Z" fill="black"/>
<path d="M192.438 126.417C190.486 125.293 188.05 125.589 185.567 127.245C181.718 129.829 178.421 135.367 177.008 141.066C177.618 141.249 178.259 141.304 178.892 141.228C180.238 136.147 183.138 131.275 186.536 128.974C187.457 128.313 188.537 127.909 189.665 127.803C190.308 127.767 190.948 127.917 191.509 128.234C193.158 129.189 194.113 131.646 194.127 134.963C194.13 135.511 194.103 136.059 194.046 136.605L195.843 137.641C195.963 136.724 196.023 135.8 196.024 134.875C195.991 130.811 194.692 127.722 192.438 126.417Z" fill="#263238"/>
<path opacity="0.1" d="M160.649 128.582C159.249 129.531 159.256 130.965 160.649 131.786C161.449 132.185 162.338 132.373 163.232 132.333C164.126 132.293 164.995 132.026 165.756 131.557C167.163 130.615 167.163 129.175 165.756 128.354C164.955 127.956 164.066 127.768 163.173 127.808C162.28 127.848 161.411 128.115 160.649 128.582Z" fill="black"/>
<path d="M177.006 117.498C175.054 116.368 172.625 116.671 170.142 118.319C166.3 120.91 162.989 126.441 161.562 132.148C162.174 132.324 162.814 132.379 163.447 132.309C164.792 127.222 167.693 122.35 171.098 120.056C172.013 119.389 173.092 118.982 174.22 118.878C174.864 118.844 175.504 118.996 176.064 119.315C177.712 120.264 178.668 122.72 178.681 126.044C178.688 126.593 178.661 127.141 178.601 127.686L180.404 128.729C180.522 127.812 180.58 126.888 180.579 125.964C180.559 121.886 179.26 118.804 177.006 117.498Z" fill="#263238"/>
<path opacity="0.1" d="M145.227 119.667C143.827 120.609 143.834 122.043 145.227 122.87C146.028 123.268 146.917 123.456 147.81 123.416C148.704 123.376 149.572 123.11 150.334 122.642C151.741 121.693 151.741 120.26 150.334 119.439C149.534 119.039 148.645 118.85 147.751 118.89C146.857 118.93 145.988 119.198 145.227 119.667Z" fill="black"/>
<path d="M161.584 108.576C159.633 107.446 157.197 107.748 154.72 109.404C150.878 111.995 147.567 117.519 146.141 123.225C146.752 123.405 147.392 123.46 148.025 123.387C149.337 118.3 152.271 113.428 155.669 111.133C156.589 110.47 157.669 110.064 158.798 109.956C159.442 109.922 160.082 110.074 160.642 110.393C162.291 111.342 163.246 113.798 163.26 117.122C163.266 117.673 163.239 118.223 163.179 118.771L164.975 119.807C165.099 118.89 165.159 117.966 165.157 117.041C165.137 112.964 163.838 109.882 161.584 108.576Z" fill="#263238"/>
<path opacity="0.1" d="M129.797 110.745C128.398 111.693 128.404 113.127 129.797 113.948C130.598 114.347 131.487 114.535 132.381 114.495C133.274 114.455 134.143 114.188 134.905 113.719C136.318 112.77 136.311 111.337 134.905 110.516C134.104 110.118 133.215 109.93 132.321 109.97C131.428 110.01 130.559 110.277 129.797 110.745Z" fill="black"/>
<path d="M146.154 99.6605C144.21 98.53 141.774 98.8329 139.291 100.481C135.448 103.072 132.144 108.604 130.711 114.31C131.322 114.486 131.963 114.541 132.595 114.471C133.941 109.384 136.848 104.512 140.246 102.218C141.162 101.551 142.241 101.144 143.368 101.04C144.015 101.005 144.657 101.157 145.219 101.477C146.861 102.426 147.823 104.882 147.837 108.207C147.84 108.755 147.813 109.303 147.756 109.848L149.553 110.891C149.673 109.975 149.732 109.051 149.727 108.126C149.707 104.048 148.409 100.966 146.154 99.6605Z" fill="#263238"/>
<path d="M161.178 248.933C160.871 248.944 160.566 248.869 160.3 248.716C160.033 248.562 159.815 248.336 159.671 248.065C159.442 247.631 159.379 247.129 159.493 246.653C159.607 246.176 159.89 245.757 160.29 245.474L244.754 188.794C244.944 188.663 245.159 188.573 245.385 188.531C245.612 188.489 245.845 188.496 246.069 188.55C246.293 188.605 246.503 188.707 246.684 188.849C246.866 188.99 247.016 189.169 247.123 189.373C247.352 189.806 247.415 190.308 247.301 190.785C247.187 191.262 246.904 191.681 246.504 191.964L162.047 248.663C161.787 248.83 161.487 248.923 161.178 248.933Z" fill="#EBEBEB"/>
<path d="M150.895 243.011C150.588 243.023 150.283 242.947 150.017 242.794C149.75 242.64 149.532 242.415 149.388 242.143C149.16 241.709 149.098 241.206 149.213 240.729C149.328 240.253 149.613 239.834 150.014 239.552L234.471 182.866C234.662 182.735 234.877 182.646 235.104 182.605C235.331 182.563 235.564 182.57 235.788 182.625C236.012 182.679 236.222 182.781 236.405 182.922C236.587 183.063 236.738 183.241 236.847 183.444C237.075 183.879 237.137 184.381 237.022 184.858C236.907 185.334 236.622 185.753 236.221 186.035L151.763 242.721C151.506 242.896 151.206 242.996 150.895 243.011Z" fill="#EBEBEB"/>
<path d="M140.601 237.064C140.294 237.075 139.99 236.998 139.725 236.844C139.459 236.689 139.243 236.462 139.101 236.189C138.872 235.756 138.809 235.254 138.922 234.777C139.036 234.301 139.32 233.882 139.72 233.599L224.184 176.933C224.374 176.803 224.589 176.715 224.815 176.675C225.042 176.634 225.274 176.641 225.497 176.695C225.72 176.75 225.93 176.851 226.111 176.991C226.293 177.132 226.444 177.309 226.553 177.511C226.782 177.945 226.845 178.447 226.731 178.923C226.617 179.4 226.334 179.819 225.934 180.102L141.47 236.768C141.213 236.944 140.912 237.047 140.601 237.064Z" fill="#EBEBEB"/>
<path d="M130.319 231.122C130.011 231.133 129.706 231.056 129.44 230.901C129.173 230.747 128.956 230.52 128.812 230.247C128.583 229.814 128.519 229.312 128.633 228.835C128.747 228.359 129.031 227.94 129.431 227.657L213.895 170.977C214.084 170.845 214.299 170.754 214.526 170.711C214.753 170.669 214.986 170.675 215.21 170.73C215.435 170.785 215.645 170.887 215.826 171.029C216.008 171.172 216.157 171.351 216.264 171.556C216.493 171.989 216.556 172.491 216.442 172.968C216.328 173.444 216.045 173.863 215.645 174.147L131.18 230.826C130.926 231.002 130.628 231.105 130.319 231.122Z" fill="#EBEBEB"/>
<path d="M120.028 225.166C119.721 225.178 119.416 225.103 119.15 224.949C118.883 224.796 118.665 224.57 118.521 224.298C118.293 223.864 118.23 223.361 118.346 222.885C118.461 222.408 118.745 221.989 119.147 221.707L203.611 165.028C203.801 164.897 204.017 164.809 204.244 164.767C204.471 164.726 204.704 164.732 204.928 164.787C205.152 164.841 205.362 164.943 205.544 165.084C205.727 165.225 205.877 165.403 205.986 165.607C206.214 166.041 206.277 166.543 206.162 167.02C206.046 167.497 205.762 167.915 205.36 168.197L120.896 224.877C120.639 225.051 120.339 225.151 120.028 225.166Z" fill="#EBEBEB"/>
<path d="M109.747 219.223C109.439 219.235 109.133 219.159 108.866 219.004C108.6 218.849 108.382 218.622 108.24 218.348C108.011 217.914 107.949 217.411 108.064 216.935C108.179 216.458 108.464 216.039 108.865 215.757L193.323 159.078C193.513 158.946 193.728 158.857 193.956 158.814C194.183 158.772 194.416 158.779 194.641 158.834C194.865 158.888 195.075 158.99 195.258 159.132C195.44 159.274 195.59 159.452 195.698 159.656C195.927 160.09 195.991 160.592 195.877 161.068C195.763 161.545 195.479 161.964 195.079 162.247L110.615 218.927C110.36 219.106 110.059 219.209 109.747 219.223Z" fill="#EBEBEB"/>
<path d="M99.4597 213.269C99.1517 213.279 98.847 213.202 98.5804 213.048C98.3139 212.893 98.0962 212.666 97.9524 212.394C97.7235 211.96 97.6601 211.458 97.774 210.982C97.8879 210.505 98.1714 210.086 98.5715 209.803L183.056 153.13C183.245 152.999 183.46 152.909 183.687 152.867C183.914 152.825 184.147 152.832 184.37 152.886C184.594 152.941 184.804 153.043 184.986 153.184C185.167 153.326 185.317 153.505 185.424 153.709C185.653 154.142 185.717 154.644 185.603 155.121C185.489 155.598 185.205 156.017 184.805 156.3L100.321 212.979C100.066 213.152 99.7678 213.252 99.4597 213.269Z" fill="#EBEBEB"/>
<path d="M89.1767 207.326C88.8692 207.338 88.5646 207.263 88.298 207.109C88.0314 206.956 87.8135 206.73 87.6693 206.458C87.4411 206.024 87.3788 205.522 87.4939 205.045C87.6091 204.568 87.8939 204.15 88.2952 203.868L172.759 147.188C172.948 147.056 173.163 146.965 173.39 146.922C173.617 146.88 173.85 146.886 174.075 146.941C174.299 146.996 174.509 147.098 174.691 147.24C174.872 147.383 175.021 147.562 175.128 147.767C175.357 148.2 175.42 148.702 175.306 149.179C175.192 149.655 174.909 150.074 174.509 150.357L90.0447 207.037C89.7871 207.211 89.4869 207.311 89.1767 207.326Z" fill="#EBEBEB"/>
<path d="M78.8919 201.378C78.5862 201.382 78.2854 201.3 78.0237 201.142C77.762 200.984 77.5499 200.756 77.4115 200.483C77.1833 200.049 77.121 199.546 77.2361 199.07C77.3513 198.593 77.6361 198.174 78.0373 197.892L162.468 141.266C162.657 141.134 162.873 141.043 163.1 141.001C163.328 140.958 163.562 140.964 163.786 141.019C164.011 141.074 164.222 141.176 164.404 141.318C164.586 141.461 164.736 141.64 164.843 141.845C165.071 142.279 165.134 142.782 165.019 143.258C164.903 143.735 164.619 144.154 164.217 144.436L79.76 201.088C79.5028 201.263 79.2024 201.363 78.8919 201.378Z" fill="#EBEBEB"/>
<path d="M68.6093 195.435C68.3021 195.446 67.9981 195.37 67.7326 195.215C67.467 195.06 67.2507 194.833 67.1087 194.561C66.8798 194.127 66.8164 193.625 66.9303 193.149C67.0442 192.672 67.3276 192.253 67.7277 191.97L152.192 135.29C152.381 135.159 152.596 135.069 152.823 135.027C153.05 134.985 153.283 134.992 153.506 135.047C153.73 135.101 153.94 135.203 154.122 135.345C154.304 135.486 154.453 135.665 154.561 135.869C154.789 136.302 154.853 136.804 154.739 137.281C154.625 137.758 154.342 138.177 153.941 138.46L69.4773 195.139C69.2205 195.316 68.9203 195.418 68.6093 195.435Z" fill="#EBEBEB"/>
<path d="M58.3269 189.495C58.0189 189.505 57.7142 189.429 57.4476 189.274C57.1811 189.119 56.9634 188.893 56.8196 188.62C56.5907 188.187 56.5273 187.685 56.6412 187.208C56.7551 186.731 57.0386 186.312 57.4387 186.029L141.91 129.343C142.099 129.212 142.314 129.122 142.541 129.08C142.767 129.038 143 129.045 143.224 129.099C143.448 129.154 143.658 129.256 143.839 129.397C144.021 129.539 144.171 129.718 144.278 129.922C144.507 130.355 144.57 130.857 144.457 131.334C144.343 131.81 144.059 132.229 143.659 132.513L59.1883 189.199C58.9335 189.374 58.6357 189.477 58.3269 189.495Z" fill="#EBEBEB"/>
<path d="M48.036 183.538C47.7286 183.55 47.424 183.475 47.1574 183.321C46.8907 183.168 46.6728 182.942 46.5287 182.67C46.3005 182.236 46.2382 181.734 46.3533 181.257C46.4685 180.78 46.7533 180.362 47.1545 180.08L131.619 123.4C131.809 123.269 132.024 123.179 132.251 123.137C132.478 123.095 132.712 123.101 132.936 123.156C133.161 123.211 133.371 123.312 133.553 123.454C133.736 123.596 133.886 123.775 133.994 123.979C134.222 124.413 134.285 124.915 134.169 125.392C134.054 125.869 133.769 126.287 133.368 126.569L48.9041 183.249C48.6469 183.423 48.3465 183.524 48.036 183.538Z" fill="#EBEBEB"/>
<path d="M37.7548 177.604C37.4475 177.615 37.1432 177.54 36.8767 177.386C36.6102 177.233 36.3922 177.008 36.2475 176.736C36.0192 176.302 35.9569 175.8 36.0721 175.323C36.1872 174.846 36.472 174.428 36.8733 174.146L121.331 117.459C121.521 117.329 121.737 117.24 121.963 117.199C122.19 117.157 122.423 117.164 122.648 117.219C122.872 117.273 123.082 117.374 123.264 117.516C123.447 117.657 123.597 117.835 123.706 118.038C123.934 118.472 123.997 118.975 123.881 119.451C123.766 119.928 123.481 120.347 123.08 120.629L38.6228 177.308C38.3663 177.485 38.0659 177.588 37.7548 177.604Z" fill="#EBEBEB"/>
<path d="M171.624 254.902C171.316 254.912 171.011 254.835 170.745 254.681C170.478 254.526 170.26 254.299 170.116 254.027C169.888 253.593 169.824 253.092 169.938 252.615C170.052 252.138 170.335 251.719 170.736 251.436L260.072 191.379C260.262 191.247 260.477 191.157 260.704 191.115C260.931 191.073 261.165 191.08 261.389 191.134C261.614 191.189 261.824 191.291 262.006 191.432C262.189 191.574 262.339 191.753 262.447 191.957C262.677 192.392 262.74 192.896 262.625 193.374C262.51 193.853 262.224 194.272 261.821 194.555L172.485 254.606C172.23 254.78 171.932 254.882 171.624 254.902Z" fill="#8ED06C"/>
<path d="M180.508 218.82C180.38 218.45 180.192 218.073 179.923 218.147C179.842 218.187 179.775 218.25 179.728 218.328C179.682 218.405 179.658 218.494 179.66 218.584C179.662 218.704 179.685 218.822 179.728 218.934C179.808 219.203 179.977 219.345 180.064 219.607C181.06 222.898 177.796 223.941 176.074 224.062C171.188 224.425 166.39 222.225 161.902 219.829C155.462 216.397 149.049 212.622 142.307 210.408C136.641 208.558 127.893 206.721 124.636 215.287C124.576 215.462 124.777 215.778 124.865 215.583C128.398 207.643 136.479 209.285 142.051 211.128C148.861 213.383 155.328 217.218 161.842 220.677C166.195 222.985 170.771 224.997 175.495 224.876C177.655 224.829 182.009 223.577 180.663 219.284C180.623 219.19 180.569 219.008 180.508 218.82Z" fill="#263238"/>
<path d="M207.295 117.829C204.253 112.338 200.667 106.288 196.892 97.426C193.117 88.5637 189.907 88.4897 181.415 85.4481C174.369 82.9314 155.171 74.8497 147.507 71.5861C137.642 67.3804 134.916 66.8757 126.512 57.3607C117.367 46.9776 86.6618 12.8945 86.6618 12.8945L47.6328 85.1318C60.6672 92.6281 71.5751 98.8727 79.5087 103.94C86.4397 108.354 90.6858 112.176 94.5618 125.816C97.1996 135.075 97.5092 139.093 104.756 147.349C110.375 153.769 112.017 155.586 118.524 162.712L144.041 152.033C143.233 150.742 142.731 149.282 142.574 147.767C142.359 142.296 150.077 143.15 153.61 143.521C161.88 144.395 188.44 156.144 188.44 156.144L204.132 143.743C206.676 141.051 209.166 137.774 206.562 130.284C208.311 128.299 210.337 123.326 207.295 117.829Z" fill="#FFA8A7"/>
<path d="M187.89 97.008C187.192 96.1386 186.353 95.3925 185.407 94.8008C184.896 94.4509 184.391 94.1279 183.88 93.7713C183.292 93.3504 182.676 92.9705 182.036 92.634C181.915 92.5802 181.935 92.7821 181.982 92.8359C183.698 94.5586 186.02 95.5276 187.413 97.5934C187.97 98.4647 188.454 99.3807 188.859 100.332C189.411 101.523 189.976 102.694 190.575 103.865C190.622 103.952 190.683 103.865 190.669 103.791C190.044 101.442 189.351 98.9998 187.89 97.008Z" fill="#8ED06C"/>
<path d="M206.625 130.339C207.069 129.803 207.446 129.216 207.749 128.59C205.952 124.828 201.693 118.112 198.281 109.748C200.643 116.41 202.662 119.734 206.625 130.339Z" fill="#8ED06C"/>
<path d="M193.57 96.8141C193.496 96.2843 193.361 95.7649 193.167 95.2664C192.835 94.3593 192.338 93.5218 191.7 92.7968C190.937 92.0391 190.043 91.4258 189.062 90.9867C188.021 90.4205 186.91 89.9929 185.758 89.7148C185.758 89.7148 185.758 89.7552 185.758 89.7687C186.727 90.3205 187.729 90.8184 188.698 91.3702C189.624 91.8251 190.459 92.4454 191.161 93.2005C192.359 94.6204 192.803 96.4978 193.597 98.1397C193.644 98.2339 193.745 98.2137 193.745 98.1397C193.726 97.6936 193.667 97.25 193.57 96.8141Z" fill="#8ED06C"/>
<path d="M206.147 141.32C205.851 137.397 203.805 134.867 201.672 129.988C198.981 123.865 193.045 112.169 191.047 105.312C191.72 111.47 195.831 132.767 198.826 147.975L204.155 143.763C204.897 143.015 205.564 142.197 206.147 141.32Z" fill="#8ED06C"/>
<path d="M143.512 151.231C143.21 150.441 142.841 149.677 142.409 148.95C142.025 148.21 141.689 147.443 141.359 146.676C140.74 145.245 140.216 143.775 139.791 142.275C139.365 140.749 139.114 139.18 139.044 137.598C139.013 136.826 139.028 136.053 139.091 135.283C139.125 134.879 139.179 134.476 139.239 134.072C139.286 133.769 139.374 133.433 139.394 133.13C139.414 132.827 139.394 132.665 139.434 132.457C139.434 132.322 139.192 131.999 139.091 132.215C138.911 132.562 138.76 132.925 138.64 133.298C138.547 133.637 138.47 133.981 138.412 134.328C138.295 135.006 138.225 135.692 138.203 136.38C138.167 137.667 138.259 138.954 138.479 140.222C138.925 142.735 139.763 145.163 140.962 147.416C141.305 148.089 141.675 148.701 142.045 149.34C142.414 150.063 142.866 150.741 143.391 151.359C143.492 151.413 143.532 151.292 143.512 151.231Z" fill="#8ED06C"/>
<path d="M192.149 146.346L176.073 115.957C176.073 115.957 159.648 120.667 151.848 124.981C144.049 129.294 140.409 144.226 143.403 151.339L143.72 151.406C143.081 150.297 142.695 149.061 142.589 147.786C142.374 142.315 150.092 143.17 153.625 143.54C161.895 144.415 188.455 156.164 188.455 156.164L192.358 153.075L192.149 146.346Z" fill="#8ED06C"/>
<path d="M86.9853 56.7452C95.9865 35.5909 93.5807 14.3135 81.6118 9.22061C69.6428 4.12777 52.6432 17.1481 43.6419 38.3023C34.6407 59.4566 37.0465 80.734 49.0154 85.8269C60.9844 90.9197 77.984 77.8994 86.9853 56.7452Z" fill="#FFA8A7"/>
<path d="M179.521 91.6045C188.841 95.716 189.938 100.837 191.586 107.465C193.235 114.093 199.54 128.211 202.01 134.59C204.479 140.969 205.024 142.605 202.555 151.245C200.085 159.885 193.087 176.816 193.087 176.816C193.087 176.816 172.112 110.412 170.746 103.582C169.38 96.7523 170.194 89.1484 179.521 91.6045Z" fill="#FFA8A7"/>
<path d="M200.481 146.803C200.471 146.82 200.465 146.84 200.465 146.86C200.465 146.88 200.471 146.9 200.481 146.917C200.777 147.011 201.228 146.809 201.524 146.756C201.82 146.702 202.277 146.608 202.654 146.554C203.031 146.5 203.394 146.466 203.785 146.446C203.832 146.197 203.872 145.955 203.912 145.726C202.96 145.837 202.025 146.063 201.127 146.399C200.872 146.458 200.645 146.6 200.481 146.803ZM200.44 142.294C201.37 141.944 202.332 141.689 203.314 141.534C203.57 141.5 203.829 141.48 204.087 141.473C204.087 141.218 204.027 140.962 203.98 140.713C203.697 140.713 203.421 140.753 203.139 140.794C202.077 140.914 201.051 141.25 200.124 141.783C199.821 141.938 200.158 142.388 200.44 142.294ZM203.563 143.283C202.967 143.309 202.374 143.372 201.786 143.472C200.575 143.646 199.407 144.043 198.341 144.643C198.085 144.797 198.428 145.141 198.65 145.067C199.653 144.682 200.683 144.374 201.732 144.145C202.237 144.049 202.747 143.986 203.26 143.956C203.522 143.956 203.812 143.956 204.094 143.956C204.094 143.721 204.128 143.499 204.135 143.283C203.933 143.283 203.751 143.283 203.563 143.283Z" fill="#8ED06C"/>
<path d="M194.386 133.085C190.579 125.636 187.264 117.946 184.461 110.064L176.076 107.467L173.297 112.81C179.212 132.856 193.094 176.811 193.094 176.811C193.094 176.811 194.13 174.301 195.55 170.754C195.55 170.754 197.421 155.223 198.242 148.272C199.063 141.321 197.084 138.152 194.386 133.085Z" fill="#8ED06C"/>
<path d="M164.16 171.211C163.641 170.861 163.123 170.538 162.612 170.141C155.674 165.041 148.286 159.785 144.039 152.033L118.469 162.719C122.827 167.515 127.47 172.045 132.371 176.285C136.51 180.04 149.093 185.194 157.269 189.306C165.445 193.417 168.877 195.456 170.936 194.299C173.345 193.007 176.299 179.461 164.16 171.211Z" fill="#FFA8A7"/>
<path d="M134.676 177.988C134.764 177.692 134.851 177.402 134.959 177.113C135.184 176.511 135.442 175.922 135.733 175.35C136.08 174.803 136.373 174.224 136.608 173.62C136.641 173.472 136.439 173.223 136.291 173.338C135.761 173.826 135.332 174.414 135.026 175.067C134.665 175.728 134.356 176.416 134.104 177.126C134.057 177.254 134.024 177.389 133.977 177.517L134.676 177.988Z" fill="#8ED06C"/>
<path d="M137.345 179.34C137.616 178.332 137.981 177.352 138.435 176.413C138.827 175.619 139.308 174.871 139.869 174.185C140.259 173.697 140.693 173.247 141.167 172.84C141.558 172.523 141.968 172.241 142.325 171.891C142.419 171.797 142.284 171.548 142.15 171.581C141.156 171.893 140.265 172.465 139.566 173.237C138.811 173.988 138.17 174.845 137.661 175.78C137.112 176.799 136.683 177.879 136.383 178.997L137.291 179.522C137.311 179.488 137.311 179.414 137.345 179.34Z" fill="#8ED06C"/>
<path d="M140.144 179.117C140.423 178.344 140.758 177.593 141.147 176.87C141.314 176.559 141.498 176.258 141.699 175.968C141.935 175.702 142.12 175.394 142.244 175.059C142.244 174.911 142.069 174.676 141.914 174.757C141.237 175.253 140.688 175.904 140.312 176.654C139.889 177.356 139.524 178.092 139.222 178.855C139.034 179.339 138.866 179.83 138.711 180.328L139.586 180.793C139.761 180.227 139.936 179.669 140.144 179.117Z" fill="#8ED06C"/>
<path d="M153.867 187.63C154.23 185.066 155.471 182.706 157.38 180.955C157.38 180.955 163.241 183.411 165.744 185.665C168.247 187.92 170.179 192.893 168.617 194.487C165.031 194.501 160.193 190.968 153.867 187.63Z" fill="#FFC4C3"/>
<path opacity="0.3" d="M153.867 187.63C154.607 188.021 155.321 188.411 156.021 188.801C156.786 186.25 157.238 183.615 157.366 180.955C155.463 182.708 154.226 185.067 153.867 187.63Z" fill="white"/>
<path d="M164.652 130.076C168.757 136.805 175.069 148.917 175.143 150.479C175.56 159.314 175.056 168.546 175.056 178.102C175.056 187.657 174.975 194.635 179.167 200.981C182.962 206.7 189.934 208.275 190.923 202.024C191.784 196.674 192.323 185.786 193.096 176.83C193.87 167.873 195.923 154.9 196.461 147.652C196.999 140.405 192.235 133.292 189.025 123.919C186.239 115.77 183.878 105.474 179.51 101.107C175.143 96.7397 158.616 88.557 152.594 85.3809L164.652 130.076Z" fill="#FFA8A7"/>
<path d="M195.973 148.211C195.455 148.248 194.936 148.248 194.418 148.211C193.342 148.102 192.275 147.909 191.229 147.632C190.96 147.578 191.027 147.962 191.188 148.049C192.246 148.533 193.39 148.796 194.553 148.823C195.131 148.867 195.711 148.867 196.289 148.823H196.343C196.343 148.601 196.376 148.392 196.39 148.184L195.973 148.211Z" fill="#8ED06C"/>
<path d="M189.801 141.716C189.62 141.804 189.848 142.12 190.01 142.079C191.26 141.746 192.566 141.673 193.845 141.864C194.413 141.965 194.967 142.125 195.501 142.342L195.992 142.577C195.931 142.288 195.864 141.999 195.797 141.709C195.223 141.477 194.625 141.31 194.014 141.211C192.591 140.947 191.121 141.123 189.801 141.716Z" fill="#8ED06C"/>
<path d="M192.268 144.058C191.247 144.019 190.225 144.105 189.226 144.314C188.385 144.502 187.153 144.711 186.602 145.444C186.602 145.444 186.602 145.559 186.635 145.559C187.104 145.545 187.569 145.463 188.015 145.317C188.499 145.195 188.984 145.088 189.475 145.014C191.291 144.723 193.149 144.833 194.919 145.337C195.438 145.489 195.947 145.678 196.44 145.902C196.44 145.559 196.44 145.229 196.379 144.866C196.009 144.731 195.632 144.61 195.269 144.509C194.29 144.239 193.282 144.088 192.268 144.058Z" fill="#8ED06C"/>
<path d="M192.567 181.924C192.217 181.81 191.854 181.709 191.497 181.608C190.757 181.413 190.017 181.238 189.263 181.097C189.224 181.087 189.183 181.085 189.144 181.092C189.104 181.099 189.066 181.114 189.033 181.136C188.999 181.158 188.97 181.187 188.949 181.221C188.927 181.255 188.913 181.292 188.906 181.332C188.906 181.521 189.081 181.648 189.243 181.675C189.916 181.81 190.589 181.958 191.295 182.14L192.284 182.429L192.641 182.543L192.681 181.958L192.567 181.924Z" fill="#8ED06C"/>
<path d="M190.324 179.473C191.085 179.7 191.831 179.974 192.558 180.294L192.8 180.402L192.861 179.608L192.78 179.568C192.005 179.257 191.212 178.996 190.404 178.787C189.605 178.58 188.794 178.422 187.975 178.316C187.112 178.149 186.226 178.133 185.358 178.269C185.196 178.269 185.27 178.558 185.405 178.585C186.259 178.753 187.134 178.801 187.989 178.949C188.776 179.08 189.556 179.255 190.324 179.473Z" fill="#8ED06C"/>
<path d="M189.069 177.355C190.132 177.592 191.181 177.889 192.212 178.243C192.461 178.33 192.703 178.431 192.945 178.532C192.945 178.31 192.985 178.095 192.999 177.859L192.487 177.664C191.363 177.3 190.207 177.039 189.035 176.883C188.733 176.863 188.847 177.307 189.069 177.355Z" fill="#8ED06C"/>
<path d="M192.144 189.279C188.2 185.477 184.069 186.829 184.069 186.829C183.579 190.046 183.396 193.302 183.524 196.553C183.806 201.102 186.807 203.329 189.102 203.72C191.397 204.11 191.699 199.622 192.144 189.279Z" fill="#FFC4C3"/>
<path opacity="0.3" d="M192.079 190.954C192.079 190.416 192.126 189.858 192.153 189.279C188.21 185.477 184.078 186.829 184.078 186.829C184.865 188.229 189.226 190.685 192.079 190.954Z" fill="white"/>
<path d="M181.725 102.311C179.901 99.8217 177.169 98.3547 174.478 96.982C172.957 96.2456 171.482 95.4164 170.063 94.4989C169.982 94.4384 169.962 94.6133 170.009 94.6604C172.143 96.5446 174.72 97.8568 177.048 99.4314C179.601 101.031 181.579 103.402 182.694 106.201C183.407 107.823 183.999 109.491 184.645 111.14C184.692 111.268 184.793 111.187 184.78 111.08C184.416 108.024 183.555 104.821 181.725 102.311Z" fill="#8ED06C"/>
<path d="M135.561 23.036C135.679 23.2162 135.774 23.4106 135.843 23.6147L135.48 22.316C135.459 22.2384 135.435 22.1621 135.406 22.0872V22.0401C135.382 21.9611 135.35 21.8845 135.312 21.8113L135.258 21.7036C135.258 21.643 135.197 21.5892 135.157 21.5286L134.969 21.2595C134.895 21.172 134.821 21.0845 134.74 21.0038C134.09 20.3965 133.292 19.9717 132.425 19.7723C128.973 18.8639 124.135 20.1761 121.618 22.7062C121.281 23.0332 120.987 23.4018 120.743 23.8031C120.694 23.8709 120.651 23.943 120.615 24.0184C120.584 24.0557 120.561 24.0993 120.548 24.1463C120.5 24.2298 120.459 24.3177 120.427 24.4087C120.294 24.6989 120.206 25.0074 120.164 25.3239C120.107 25.6942 120.128 26.0723 120.225 26.4342L120.636 27.9213C120.567 27.6739 120.535 27.4177 120.541 27.1609C121.204 28.084 122.193 28.7213 123.307 28.9442C126.759 29.8593 131.604 28.5471 134.121 26.017C134.965 25.2448 135.481 24.1776 135.561 23.036Z" fill="#8ED06C"/>
<path d="M182.914 197.531L167.632 201.703L167.228 200.209L120.595 27.943C120.526 27.6956 120.494 27.4394 120.501 27.1826C120.595 26.0276 121.13 24.9531 121.995 24.1814C124.511 21.6513 129.35 20.3458 132.802 21.261C133.668 21.4531 134.467 21.8737 135.117 22.479C135.285 22.6475 135.435 22.8349 135.561 23.0375C135.679 23.2177 135.774 23.4122 135.843 23.6162C135.843 23.6162 135.843 23.6902 135.877 23.7171V23.7575L182.914 197.531Z" fill="#F0F0F0"/>
<path d="M179.825 195.02C183.277 195.928 184.038 198.728 181.514 201.258C178.991 203.788 174.159 205.1 170.707 204.185C167.255 203.27 166.501 200.477 169.018 197.947C171.535 195.417 176.373 194.105 179.825 195.02Z" fill="#8ED06C"/>
<path d="M182.494 209.405C182.494 209.337 182.494 209.263 182.494 209.196L182.965 198.584V198.463C182.969 198.398 182.969 198.333 182.965 198.268V198.16C182.932 196.747 181.842 195.543 179.796 195.004C176.344 194.089 171.506 195.401 168.989 197.932C167.529 199.398 167.179 200.96 167.805 202.184L167.858 202.258C167.924 202.38 167.998 202.497 168.08 202.608L168.128 202.682L173.874 211.592C174.251 212.108 174.808 212.464 175.435 212.588C176.524 212.816 177.651 212.783 178.724 212.493C179.798 212.203 180.787 211.664 181.613 210.919C182.07 210.529 182.381 209.995 182.494 209.405Z" fill="#E0E0E0"/>
<path d="M149.666 94.2237C149.669 94.2174 149.671 94.2105 149.671 94.2035C149.671 94.1965 149.669 94.1897 149.666 94.1833L149.612 93.9747C149.509 93.7709 149.36 93.5937 149.176 93.4571C148.993 93.3205 148.781 93.2282 148.556 93.1874C147.877 93.0485 147.175 93.0711 146.506 93.2534C145.837 93.4358 145.221 93.7728 144.707 94.2372C144.537 94.3802 144.402 94.5599 144.312 94.7628C144.223 94.9657 144.18 95.1863 144.189 95.4081L144.263 95.6772L173.871 204.999L180.122 206.654L149.666 94.2237Z" fill="#455A64"/>
<path d="M171.453 196.211L173.835 205.013L180.087 206.668L176.857 194.744C174.972 194.847 173.131 195.347 171.453 196.211Z" fill="#37474F"/>
<path d="M181.857 214.036L182.281 204.413C182.291 204.328 182.291 204.243 182.281 204.158C182.281 203.135 181.501 202.274 180.034 201.883C178.687 201.604 177.294 201.646 175.967 202.007C174.64 202.367 173.417 203.034 172.396 203.956C171.367 204.992 171.111 206.082 171.548 206.95V207.004L171.696 207.233L177.012 215.402C177.226 215.692 177.54 215.892 177.894 215.961C178.507 216.09 179.142 216.072 179.747 215.908C180.351 215.744 180.909 215.439 181.373 215.019C181.518 214.898 181.636 214.748 181.72 214.579C181.803 214.41 181.85 214.225 181.857 214.036Z" fill="#8ED06C"/>
<path opacity="0.1" d="M181.857 214.036L182.281 204.413C182.291 204.328 182.291 204.243 182.281 204.158C182.281 203.135 181.501 202.274 180.034 201.883C178.687 201.604 177.294 201.646 175.967 202.007C174.64 202.367 173.417 203.034 172.396 203.956C171.367 204.992 171.111 206.082 171.548 206.95V207.004L171.696 207.233L177.012 215.402C177.226 215.692 177.54 215.892 177.894 215.961C178.507 216.09 179.142 216.072 179.747 215.908C180.351 215.744 180.909 215.439 181.373 215.019C181.518 214.898 181.636 214.748 181.72 214.579C181.803 214.41 181.85 214.225 181.857 214.036Z" fill="black"/>
<path d="M181.399 215.024C180.932 215.442 180.374 215.745 179.768 215.908C179.162 216.07 178.527 216.088 177.913 215.959C177.561 215.891 177.249 215.691 177.039 215.401L174.347 211.269C173.923 210.596 174.078 209.768 174.879 208.954C175.623 208.284 176.514 207.798 177.481 207.537C178.448 207.275 179.463 207.244 180.443 207.447C181.493 207.723 182.058 208.342 182.072 209.075V209.27L181.863 214.035C181.856 214.222 181.811 214.406 181.732 214.576C181.652 214.746 181.539 214.898 181.399 215.024Z" fill="#8ED06C"/>
<path opacity="0.1" d="M180.843 213.014C181.954 213.31 182.189 214.205 181.388 215.032C180.924 215.453 180.367 215.758 179.762 215.922C179.158 216.086 178.523 216.104 177.91 215.974C176.799 215.685 176.564 214.783 177.364 213.956C177.829 213.536 178.387 213.232 178.991 213.068C179.596 212.904 180.23 212.886 180.843 213.014Z" fill="black"/>
<path d="M135.342 41.2726C135.26 41.0384 135.115 40.8315 134.922 40.6748C134.73 40.518 134.498 40.4175 134.252 40.3843C133.577 40.2426 132.879 40.2626 132.213 40.4427C131.548 40.6228 130.934 40.9579 130.423 41.4206C130.227 41.5789 130.077 41.788 129.99 42.0251C129.904 42.2623 129.884 42.5186 129.932 42.7664L144.184 95.4287C144.176 95.207 144.218 94.9863 144.308 94.7834C144.398 94.5805 144.533 94.4008 144.702 94.2578C145.217 93.7934 145.833 93.4564 146.502 93.2741C147.17 93.0917 147.873 93.0691 148.552 93.2081C148.776 93.2488 148.989 93.3411 149.172 93.4777C149.355 93.6143 149.505 93.7915 149.608 93.9954L135.342 41.2726Z" fill="#FAFAFA"/>
<path d="M134.844 42.5902C134.332 43.0515 133.718 43.3857 133.053 43.5657C132.388 43.7458 131.69 43.7666 131.015 43.6265C130.772 43.5916 130.543 43.491 130.354 43.3357C130.164 43.1803 130.02 42.976 129.938 42.745C129.883 42.4984 129.899 42.2414 129.984 42.0034C130.068 41.7655 130.218 41.556 130.416 41.3991C130.927 40.9364 131.54 40.6013 132.206 40.4212C132.871 40.2411 133.57 40.2211 134.245 40.3628C134.491 40.396 134.723 40.4965 134.915 40.6533C135.107 40.81 135.253 41.0169 135.335 41.2511C135.381 41.4978 135.36 41.7526 135.274 41.9883C135.187 42.224 135.039 42.432 134.844 42.5902Z" fill="#F5F5F5"/>
<path d="M137.679 33.4534V33.3861C137.682 33.3526 137.682 33.3188 137.679 33.2852L135.183 24.0865C135.167 24.0136 135.147 23.9417 135.122 23.8711V23.8173C134.799 22.8752 133.877 22.1014 132.431 21.7111C130.717 21.3551 128.943 21.4084 127.253 21.8668C125.564 22.3251 124.006 23.1755 122.707 24.3489C121.563 25.4929 121.173 26.6974 121.455 27.7135L123.986 37.0333C123.983 37.0489 123.983 37.0649 123.986 37.0804V37.1343C124.288 38.1167 125.217 38.9175 126.731 39.3212C128.445 39.6761 130.219 39.6223 131.908 39.164C133.597 38.7057 135.155 37.8559 136.455 36.6834C137.491 35.6202 137.895 34.4493 137.679 33.4534Z" fill="#8ED06C"/>
<path opacity="0.05" d="M137.679 33.4534V33.3861C137.682 33.3526 137.682 33.3188 137.679 33.2852L135.183 24.0865C135.167 24.0136 135.147 23.9417 135.122 23.8711V23.8173C134.799 22.8752 133.877 22.1014 132.431 21.7111C130.717 21.3551 128.943 21.4084 127.253 21.8668C125.564 22.3251 124.006 23.1755 122.707 24.3489C121.563 25.4929 121.173 26.6974 121.455 27.7135L123.986 37.0333C123.983 37.0489 123.983 37.0649 123.986 37.0804V37.1343C124.288 38.1167 125.217 38.9175 126.731 39.3212C128.445 39.6761 130.219 39.6223 131.908 39.164C133.597 38.7057 135.155 37.8559 136.455 36.6834C137.491 35.6202 137.895 34.4493 137.679 33.4534Z" fill="black"/>
<path opacity="0.1" d="M134.884 31.0704C137.992 31.8914 138.672 34.435 136.404 36.6893C135.105 37.8617 133.547 38.7116 131.858 39.1698C130.168 39.6281 128.395 39.682 126.681 39.3271C123.572 38.4994 122.892 35.9625 125.16 33.7083C126.459 32.5349 128.017 31.6845 129.706 31.2261C131.396 30.7678 133.17 30.7145 134.884 31.0704Z" fill="black"/>
<path d="M181.624 218.034L180.648 214.172C180.613 214.058 180.546 213.957 180.455 213.879C180.365 213.802 180.254 213.752 180.137 213.734C179.822 213.671 179.497 213.681 179.188 213.765C178.878 213.85 178.592 214.005 178.353 214.219C178.266 214.293 178.2 214.388 178.16 214.495C178.12 214.603 178.108 214.718 178.125 214.831L179.087 218.694C179.15 218.906 179.266 219.098 179.423 219.252C179.625 219.453 179.886 219.583 180.167 219.623C180.449 219.663 180.736 219.61 180.985 219.473C181.234 219.335 181.431 219.121 181.548 218.861C181.664 218.602 181.693 218.312 181.631 218.034H181.624Z" fill="#455A64"/>
<path d="M181.647 218.282C181.657 218.206 181.657 218.13 181.647 218.054C181.594 217.964 181.522 217.886 181.436 217.827C181.35 217.768 181.252 217.728 181.149 217.71C180.835 217.643 180.509 217.652 180.199 217.737C179.888 217.821 179.603 217.978 179.366 218.195C179.278 218.265 179.211 218.358 179.171 218.463C179.132 218.569 179.123 218.683 179.144 218.794C179.14 218.818 179.14 218.843 179.144 218.868C179.142 218.89 179.142 218.913 179.144 218.935C179.201 219.068 179.286 219.187 179.393 219.285C179.643 219.524 179.975 219.657 180.321 219.657C180.667 219.657 181 219.524 181.25 219.285C181.386 219.158 181.493 219.002 181.561 218.828C181.63 218.655 181.659 218.468 181.647 218.282Z" fill="#263238"/>
<path d="M179.529 91.6065C188.849 95.718 189.946 100.839 191.594 107.467C193.243 114.095 199.548 128.213 202.018 134.592C204.487 140.971 205.032 142.607 202.563 151.247C200.093 159.887 193.095 176.818 193.095 176.818C193.095 176.818 172.12 110.414 170.754 103.584C169.388 96.7543 170.202 89.1503 179.529 91.6065Z" fill="#FFA8A7"/>
<path d="M200.488 146.805C200.478 146.822 200.473 146.842 200.473 146.862C200.473 146.882 200.478 146.902 200.488 146.919C200.784 147.013 201.235 146.811 201.531 146.758C201.828 146.704 202.285 146.61 202.662 146.556C203.039 146.502 203.402 146.468 203.792 146.448C203.84 146.199 203.88 145.957 203.92 145.728C202.968 145.839 202.033 146.065 201.134 146.401C200.88 146.46 200.653 146.602 200.488 146.805ZM200.448 142.296C201.377 141.946 202.34 141.691 203.321 141.536C203.578 141.502 203.836 141.482 204.095 141.475C204.095 141.22 204.035 140.964 203.988 140.715C203.705 140.715 203.429 140.755 203.146 140.796C202.084 140.916 201.058 141.252 200.132 141.785C199.829 141.94 200.165 142.39 200.448 142.296ZM203.57 143.285C202.975 143.311 202.382 143.374 201.794 143.474C200.583 143.648 199.415 144.045 198.349 144.645C198.093 144.799 198.436 145.143 198.658 145.069C199.661 144.684 200.691 144.376 201.74 144.147C202.245 144.051 202.755 143.988 203.268 143.958C203.53 143.958 203.819 143.958 204.102 143.958C204.102 143.723 204.136 143.501 204.142 143.285C203.94 143.285 203.759 143.285 203.57 143.285Z" fill="#8ED06C"/>
<path d="M194.386 133.085C190.579 125.636 187.264 117.946 184.461 110.064L176.076 107.467L173.297 112.81C179.212 132.856 193.094 176.811 193.094 176.811C193.094 176.811 194.13 174.301 195.55 170.754C195.55 170.754 197.421 155.223 198.242 148.272C199.063 141.321 197.084 138.152 194.386 133.085Z" fill="#8ED06C"/>
<path d="M164.167 171.211C163.649 170.861 163.131 170.538 162.62 170.141C155.682 165.041 148.293 159.785 144.047 152.033L118.477 162.719C122.835 167.515 127.477 172.045 132.379 176.285C136.517 180.04 149.101 185.194 157.277 189.306C165.453 193.417 168.885 195.456 170.944 194.299C173.353 193.007 176.307 179.461 164.167 171.211Z" fill="#FFA8A7"/>
<path d="M134.684 177.988C134.772 177.692 134.859 177.402 134.967 177.113C135.191 176.511 135.45 175.922 135.741 175.35C136.088 174.803 136.381 174.224 136.615 173.62C136.649 173.472 136.447 173.223 136.299 173.338C135.769 173.826 135.339 174.414 135.034 175.067C134.672 175.728 134.364 176.416 134.112 177.126C134.065 177.254 134.031 177.389 133.984 177.517L134.684 177.988Z" fill="#8ED06C"/>
<path d="M137.353 179.34C137.624 178.332 137.989 177.352 138.443 176.413C138.835 175.619 139.316 174.871 139.876 174.185C140.266 173.697 140.701 173.247 141.175 172.84C141.565 172.523 141.976 172.241 142.332 171.891C142.427 171.797 142.292 171.548 142.158 171.581C141.164 171.893 140.272 172.465 139.574 173.237C138.819 173.988 138.178 174.845 137.669 175.78C137.12 176.799 136.691 177.879 136.391 178.997L137.299 179.522C137.319 179.488 137.319 179.414 137.353 179.34Z" fill="#8ED06C"/>
<path d="M140.152 179.117C140.431 178.344 140.766 177.593 141.155 176.87C141.322 176.559 141.506 176.258 141.706 175.968C141.943 175.702 142.128 175.394 142.252 175.059C142.252 174.911 142.077 174.676 141.922 174.757C141.245 175.253 140.696 175.904 140.32 176.654C139.897 177.356 139.532 178.092 139.23 178.855C139.042 179.339 138.874 179.83 138.719 180.328L139.594 180.793C139.768 180.227 139.943 179.669 140.152 179.117Z" fill="#8ED06C"/>
<path d="M153.867 187.63C154.23 185.066 155.471 182.706 157.38 180.955C157.38 180.955 163.241 183.411 165.744 185.665C168.247 187.92 170.179 192.893 168.617 194.487C165.031 194.501 160.193 190.968 153.867 187.63Z" fill="#FFC4C3"/>
<path opacity="0.3" d="M153.867 187.63C154.607 188.021 155.321 188.411 156.021 188.801C156.786 186.25 157.238 183.615 157.366 180.955C155.463 182.708 154.226 185.067 153.867 187.63Z" fill="white"/>
<path d="M164.652 130.076C168.757 136.805 175.069 148.917 175.143 150.479C175.56 159.314 175.056 168.546 175.056 178.102C175.056 187.657 174.975 194.635 179.167 200.981C182.962 206.7 189.934 208.275 190.923 202.024C191.784 196.674 192.323 185.786 193.096 176.83C193.87 167.873 195.923 154.9 196.461 147.652C196.999 140.405 192.235 133.292 189.025 123.919C186.239 115.77 183.878 105.474 179.51 101.107C175.143 96.7397 158.616 88.557 152.594 85.3809L164.652 130.076Z" fill="#FFA8A7"/>
<path d="M195.981 148.211C195.463 148.248 194.944 148.248 194.426 148.211C193.349 148.102 192.283 147.909 191.237 147.632C190.967 147.578 191.035 147.962 191.196 148.049C192.254 148.533 193.398 148.796 194.561 148.823C195.139 148.867 195.719 148.867 196.297 148.823H196.351C196.351 148.601 196.384 148.392 196.398 148.184L195.981 148.211Z" fill="#8ED06C"/>
<path d="M189.801 141.718C189.62 141.805 189.848 142.122 190.01 142.081C191.26 141.748 192.566 141.675 193.845 141.866C194.413 141.967 194.967 142.127 195.501 142.344L195.992 142.579C195.931 142.29 195.864 142.001 195.797 141.711C195.223 141.479 194.625 141.312 194.014 141.213C192.591 140.949 191.121 141.125 189.801 141.718Z" fill="#8ED06C"/>
<path d="M192.275 144.058C191.255 144.019 190.233 144.105 189.234 144.314C188.393 144.502 187.161 144.711 186.609 145.444C186.609 145.444 186.609 145.559 186.643 145.559C187.112 145.545 187.577 145.463 188.022 145.317C188.507 145.195 188.991 145.088 189.483 145.014C191.299 144.723 193.157 144.833 194.927 145.337C195.446 145.489 195.955 145.678 196.447 145.902C196.447 145.559 196.447 145.229 196.387 144.866C196.017 144.731 195.64 144.61 195.277 144.509C194.298 144.239 193.29 144.088 192.275 144.058Z" fill="#8ED06C"/>
<path d="M192.575 181.924C192.225 181.81 191.861 181.709 191.505 181.608C190.765 181.413 190.024 181.238 189.271 181.097C189.232 181.087 189.191 181.085 189.151 181.092C189.112 181.099 189.074 181.114 189.04 181.136C189.007 181.158 188.978 181.187 188.957 181.221C188.935 181.255 188.92 181.292 188.914 181.332C188.914 181.521 189.089 181.648 189.251 181.675C189.923 181.81 190.596 181.958 191.303 182.14L192.292 182.429L192.649 182.543L192.689 181.958L192.575 181.924Z" fill="#8ED06C"/>
<path d="M190.331 179.473C191.093 179.7 191.839 179.974 192.566 180.294L192.808 180.402L192.868 179.608L192.788 179.568C192.013 179.257 191.22 178.996 190.412 178.787C189.613 178.58 188.802 178.422 187.983 178.316C187.12 178.149 186.234 178.133 185.365 178.269C185.204 178.269 185.278 178.558 185.412 178.585C186.267 178.753 187.142 178.801 187.996 178.949C188.784 179.08 189.564 179.255 190.331 179.473Z" fill="#8ED06C"/>
<path d="M189.069 177.355C190.132 177.592 191.181 177.889 192.212 178.243C192.461 178.33 192.703 178.431 192.945 178.532C192.945 178.31 192.985 178.095 192.999 177.859L192.487 177.664C191.363 177.3 190.207 177.039 189.035 176.883C188.733 176.863 188.847 177.307 189.069 177.355Z" fill="#8ED06C"/>
<path d="M192.151 189.279C188.208 185.477 184.076 186.829 184.076 186.829C183.587 190.046 183.404 193.302 183.531 196.553C183.814 201.102 186.815 203.329 189.11 203.72C191.404 204.11 191.707 199.622 192.151 189.279Z" fill="#FFC4C3"/>
<path opacity="0.3" d="M192.079 190.954C192.079 190.416 192.126 189.858 192.153 189.279C188.21 185.477 184.078 186.829 184.078 186.829C184.865 188.229 189.226 190.685 192.079 190.954Z" fill="white"/>
<path d="M181.733 102.311C179.909 99.8217 177.177 98.3547 174.485 96.982C172.964 96.2456 171.49 95.4164 170.071 94.4989C169.99 94.4384 169.97 94.6133 170.017 94.6604C172.15 96.5446 174.728 97.8568 177.056 99.4314C179.609 101.031 181.586 103.402 182.702 106.201C183.415 107.823 184.007 109.491 184.653 111.14C184.7 111.268 184.801 111.187 184.788 111.08C184.424 108.024 183.563 104.821 181.733 102.311Z" fill="#8ED06C"/>
<path d="M195.18 49.0768C195.18 27.3821 219.728 9.79883 250.009 9.79883C280.29 9.79883 304.865 27.3753 304.865 49.0768C304.865 70.7783 280.31 88.3615 250.029 88.3615C248.203 88.3615 246.409 88.2965 244.646 88.1664C238.657 99.4242 228.496 101.355 220.555 100.46C223.367 99.1434 225.694 96.9785 227.212 94.2699C228.729 91.5614 229.359 88.4456 229.014 85.3603C209.136 79.4454 195.18 65.4286 195.18 49.0768Z" fill="white"/>
<path d="M220.456 101.019C220.332 101.005 220.216 100.951 220.126 100.865C220.036 100.778 219.977 100.664 219.958 100.541C219.938 100.417 219.96 100.29 220.019 100.179C220.079 100.068 220.173 99.9803 220.288 99.9286C222.927 98.6874 225.123 96.668 226.581 94.1418C228.039 91.6157 228.689 88.7038 228.443 85.7974C207.879 79.5461 194.609 65.1659 194.609 49.0765C194.609 27.1059 219.467 9.22656 250.01 9.22656C280.554 9.22656 305.418 27.0992 305.418 49.0765C305.418 71.0539 280.561 88.9332 250.01 88.9332C248.355 88.9332 246.646 88.8726 244.943 88.765C239.284 99.0875 230.301 101.221 223.854 101.221C222.719 101.217 221.584 101.15 220.456 101.019ZM244.681 87.5605C246.484 87.6883 248.288 87.7556 250.064 87.7556C279.982 87.7556 304.321 70.3877 304.321 49.0429C304.321 27.698 279.982 10.3369 250.064 10.3369C220.146 10.3369 195.753 27.725 195.753 49.0765C195.753 64.7419 208.862 78.7722 229.15 84.815C229.258 84.8477 229.355 84.9119 229.426 84.9993C229.498 85.0867 229.543 85.1935 229.554 85.3062C229.856 88.1745 229.357 91.0705 228.112 93.6722C226.867 96.2739 224.925 98.4793 222.502 100.043C228.773 100.332 238.342 98.7443 244.109 87.9306C244.158 87.8391 244.23 87.7626 244.319 87.7093C244.408 87.6559 244.51 87.6277 244.614 87.6277L244.681 87.5605Z" fill="#E0E0E0"/>
<path d="M263.149 75.3196L265.303 75.609L265.148 76.8673H257.948L258.109 75.609L260.209 75.2927L259.051 70.8515H252.881L251.326 75.2927L253.695 75.609L253.533 76.8673H247.336L247.491 75.609L249.462 75.2927L255.519 58.6112L258.412 58.2949L263.149 75.3196ZM258.634 69.2634L256.42 60.7174H256.34L253.392 69.2634H258.634Z" fill="#E0E0E0"/>
<path d="M225.214 60.5158L225.531 51.4584L224.266 51.169L224.346 50.4961H226.466L226.688 50.6509L226.52 55.1527L226.157 58.349H226.264L226.769 56.4716C227.26 54.6211 227.879 53.8203 229.104 53.8203C230.51 53.8203 231.123 54.9171 231.123 56.7138C231.123 59.5468 229.743 61.0945 227.825 61.0945C226.923 61.0985 226.031 60.9008 225.214 60.5158ZM226.903 58.423L226.453 59.9842C226.872 60.1878 227.332 60.2958 227.798 60.3004C229.063 60.3004 229.884 58.8671 229.884 56.8551C229.884 56.0947 229.884 54.8364 228.915 54.8364C227.852 54.8431 227.583 56.1217 226.903 58.4499V58.423Z" fill="#E0E0E0"/>
<path d="M215.868 38.1016C215.877 38.2202 215.86 38.3394 215.82 38.4512C215.779 38.563 215.716 38.6651 215.633 38.7508C215.551 38.8365 215.451 38.9038 215.341 38.9485C215.231 38.9932 215.112 39.0141 214.993 39.01C214.804 39.0082 214.619 38.9503 214.462 38.8438C214.305 38.7372 214.183 38.5867 214.112 38.4112L214.394 38.0747C214.926 37.4758 214.394 37.1326 213.722 37.1326C212.47 37.1326 211.75 38.2766 211.75 40.3424C211.75 41.6344 212.241 42.6707 213.345 42.6707C213.707 42.6323 214.058 42.5206 214.376 42.3425C214.694 42.1644 214.973 41.9235 215.195 41.6344L215.693 42.1525C215.403 42.5858 215.016 42.9457 214.563 43.2038C214.11 43.4619 213.603 43.6111 213.082 43.6397C211.319 43.6397 210.391 42.2939 210.391 40.3895C210.391 38.0478 211.669 36.352 213.755 36.352C214.953 36.3318 215.868 36.9644 215.868 38.1016Z" fill="#E0E0E0"/>
<path d="M257.577 32.119C258.203 33.4648 257.207 34.4944 256.272 35.2346L255.074 36.2036C255.531 36.9976 256.42 37.7647 257.483 37.2937C258.079 36.9603 258.52 36.4073 258.714 35.7527L259.347 36.0151C259.242 36.49 259.032 36.9351 258.731 37.3173C258.431 37.6994 258.047 38.0088 257.611 38.2223C256.016 38.9558 254.583 38.0945 253.802 36.3987C252.826 34.2723 253.304 32.193 255.081 31.3788C256.298 30.8068 257.14 31.1702 257.577 32.119ZM255.296 32.119C254.273 32.5967 254.071 33.8551 254.731 35.4835L255.827 34.5886C256.595 33.9695 256.864 33.4513 256.5 32.6506C256.272 32.1795 255.861 31.8431 255.296 32.1055V32.119Z" fill="#E0E0E0"/>
<path d="M251.393 45.5579L250.585 47.5093L253.499 48.5321L252.954 49.8039L250.128 48.8148L247.436 55.5843C246.447 58.0471 244.845 60.4696 243.19 61.4925C242.878 61.7238 242.517 61.879 242.135 61.9456C241.753 62.0122 241.361 61.9884 240.989 61.876C240.128 61.5732 239.724 60.9474 239.913 60.2745C240.113 59.7391 240.484 59.2848 240.969 58.9825L241.756 59.6958C242.389 60.2745 243.069 60.2543 243.58 59.2247C243.91 58.5518 244.159 57.9193 244.509 57.058L248.028 48.0746L246.211 47.4016L246.77 46.2981L248.539 46.7287L249.01 45.7126C250.121 43.021 252.294 41.5002 255.033 42.4692C256.379 42.9402 257.873 44.1649 257.247 45.9414C257.198 46.1193 257.112 46.2845 256.993 46.4256C256.874 46.5666 256.726 46.6801 256.559 46.7582C256.392 46.8363 256.21 46.8771 256.025 46.8778C255.841 46.8786 255.658 46.8392 255.491 46.7624C255.261 46.6857 255.051 46.5582 254.878 46.3892C254.704 46.2203 254.571 46.0143 254.488 45.7866L254.912 45.2618C255.585 44.4274 255.47 43.8217 254.528 43.492C253.102 43.021 252.032 44.0236 251.393 45.5579Z" fill="#E0E0E0"/>
<path d="M274.584 47.5146L273.515 48.9143C271.839 51.081 270.608 51.9828 268.804 51.2291C266.853 50.4149 266.785 48.2952 267.694 46.1217C269.107 42.71 271.731 41.0748 274.329 42.138C275.127 42.4699 275.857 42.9467 276.482 43.5444L277.37 43.3762L277.841 43.7867L274.282 51.5319C272.976 54.3716 270.762 56.7201 267.149 55.2262C265.87 54.6946 264.558 53.6381 265.13 52.3058C265.181 52.1327 265.268 51.9722 265.384 51.8342C265.5 51.6963 265.644 51.5839 265.806 51.5043C265.967 51.4246 266.144 51.3793 266.324 51.3714C266.504 51.3634 266.684 51.3928 266.853 51.4579C267.049 51.5389 267.226 51.6614 267.372 51.817C267.517 51.9726 267.627 52.1577 267.694 52.3596L267.31 52.8239C266.684 53.4968 266.826 54.0351 267.828 54.4523C269.726 55.2397 271.462 53.84 272.916 51.0878L274.746 47.6155L274.584 47.5146ZM274.255 46.5052L275.776 44.5471C275.265 44.0263 274.66 43.6083 273.992 43.3156C272.283 42.6023 270.439 44.1029 269.356 46.6802C269.033 47.4473 268.185 49.493 269.591 50.0448C270.998 50.5966 272.169 49.1565 274.235 46.5052H274.255Z" fill="#E0E0E0"/>
<path d="M212.543 58.1812C212.061 58.4136 211.622 58.7252 211.244 59.1031L210.39 57.9793C211.103 57.0912 212.029 56.397 213.081 55.9606C214.548 55.4021 215.672 55.9606 216.264 57.9793L218.666 65.8995C218.875 66.5724 219.097 66.956 219.649 66.7474C220.14 66.4889 220.541 66.0877 220.8 65.5967L221.816 66.4648C221.256 67.5922 220.314 68.4842 219.158 68.9815C217.395 69.6544 216.52 68.8536 216.062 67.3463L213.566 58.9349C213.384 58.2889 213.115 57.9659 212.543 58.1812ZM211.372 49.9515C211.72 49.8272 212.096 49.8081 212.454 49.8965C212.813 49.985 213.137 50.1771 213.387 50.4489C213.636 50.7206 213.801 51.0599 213.858 51.4244C213.916 51.7889 213.866 52.1624 213.713 52.4982C213.559 52.834 213.311 53.1173 212.997 53.3125C212.684 53.5077 212.32 53.6063 211.952 53.5959C211.583 53.5855 211.225 53.4666 210.923 53.2541C210.621 53.0415 210.389 52.7448 210.255 52.4009C210.156 52.1678 210.106 51.9167 210.11 51.6635C210.113 51.4102 210.169 51.1604 210.274 50.93C210.379 50.6996 210.531 50.4935 210.72 50.3251C210.909 50.1566 211.131 50.0294 211.372 49.9515Z" fill="#E0E0E0"/>
<path d="M248.652 28.2769C247.609 28.2769 247.306 27.6646 247.38 26.8301L247.817 21.8506C247.918 20.6124 247.709 20.2289 247.144 20.2289C246.471 20.2289 246.182 20.7201 245.637 22.2476L243.618 28.0077H242.185L242.461 20.7403C242.461 20.2558 242.36 20.0674 241.99 20.0674C241.632 20.1132 241.284 20.2177 240.96 20.3769L240.664 19.5088C241.287 19.1729 241.976 18.9755 242.683 18.9301C243.679 18.9301 244.029 19.5425 243.901 20.7133L243.463 25.3766H243.591L244.863 21.5881C245.489 19.7309 246.209 18.8965 247.555 18.8965C249.109 18.8965 249.526 19.8924 249.351 21.9179L248.968 26.4197C248.914 26.9445 248.968 27.1733 249.372 27.1733C249.732 27.1378 250.073 26.9921 250.347 26.7561L250.751 27.3819C250.166 27.8992 249.43 28.2132 248.652 28.2769Z" fill="#E0E0E0"/>
<path d="M284.882 32.3262C287.258 32.3262 288.624 34.0892 288.624 36.7741C288.624 39.4591 287.419 41.9556 284.357 41.9556C281.982 41.9556 280.656 40.1925 280.656 37.474C280.656 34.7554 281.807 32.3262 284.882 32.3262ZM286.935 36.7539C286.935 34.789 286.376 33.3894 284.741 33.3894C282.81 33.3894 282.365 35.4081 282.365 37.5682C282.365 39.5869 283.038 40.9327 284.465 40.9327C286.396 40.8924 286.935 38.9275 286.935 36.7539Z" fill="#E0E0E0"/>
<path d="M226.01 21.7969C230.532 20.1618 234.98 22.019 237.026 27.6715C239.266 33.8556 237.066 38.0343 232.517 40.255L232.591 40.4703C234.11 40.1478 235.688 40.2384 237.16 40.7327C239.482 41.4056 240.323 41.4056 240.249 40.3492L240.168 39.3734C241.81 38.7746 242.86 39.3129 243.237 40.3626C243.714 41.7085 242.907 42.8255 241.675 43.2696C240.33 43.7608 238.735 43.485 236.763 42.8255C234.179 41.9103 233.23 41.5537 231.669 42.1526C230.539 42.5563 229.859 43.2023 228.708 44.3194L227.477 43.0543C228.108 42.377 228.823 41.7824 229.603 41.2845L229.543 41.123C225.256 41.547 222.141 38.8418 220.748 34.9928C218.09 27.6513 221.549 23.4187 226.01 21.7969ZM231.514 39.0908C234.691 37.9401 236.077 34.3804 234.206 29.1721C232.504 24.4617 229.563 22.4833 226.252 23.6811C223.217 24.7847 221.401 27.7186 223.527 33.62C225.236 38.3102 228.022 40.3626 231.514 39.0908Z" fill="#E0E0E0"/>
<path d="M272.436 64.9304C272.157 64.9668 271.887 65.0486 271.635 65.1727L271.406 64.4998C271.889 64.2432 272.422 64.0918 272.967 64.0556C273.741 64.0556 274.004 64.5267 273.923 65.4418L273.728 67.3731H273.815L274.549 65.6437C274.993 64.5805 275.336 64.0422 276.137 64.0422C276.268 64.026 276.401 64.0378 276.527 64.0767C276.653 64.1155 276.769 64.1806 276.868 64.2677C276.968 64.3548 277.047 64.4618 277.102 64.5819C277.157 64.7019 277.186 64.8321 277.187 64.9641C277.186 65.166 277.125 65.3631 277.011 65.5299C276.897 65.6966 276.735 65.8254 276.547 65.8994L276.231 65.5361C276.083 65.3476 275.975 65.2332 275.773 65.2332C275.572 65.2332 275.363 65.4553 274.926 66.4176C273.923 68.6786 273.728 69.1092 273.661 70.0109L273.539 71.128H272.564L272.833 65.4688C272.819 65.0919 272.725 64.9304 272.436 64.9304Z" fill="#E0E0E0"/>
<path d="M262.027 22.5367C263.527 22.1868 264.213 22.9337 264.388 24.2392L265.384 31.3047C265.62 32.8794 265.869 33.4177 266.656 33.236C267.443 33.0543 267.692 32.2199 267.915 29.9657L268.735 21.3389L271.118 20.7871L273.096 31.0961C273.224 31.7691 273.439 32.0248 273.957 31.9036C274.429 31.7283 274.87 31.4784 275.263 31.1634L275.989 32.2872C275.215 32.9895 274.297 33.5132 273.298 33.8215C271.844 34.1579 271.104 33.4244 270.875 31.7421L269.96 25.013H269.758L269.355 30.7462C269.146 33.4379 268.48 34.9116 266.515 35.3691C264.355 35.8671 263.433 34.5549 263.036 31.8498L262.087 25.3158C262.006 24.6429 261.818 24.2661 261.28 24.3872C260.812 24.5477 260.402 24.8427 260.102 25.2351L259.328 24.3536C260.025 23.4912 260.965 22.8581 262.027 22.5367Z" fill="#E0E0E0"/>
<path d="M237.694 69.4798C237.483 70.6561 237.191 71.8164 236.819 72.952C236.469 74.0959 236.321 74.8496 237.317 75.0178C239.006 75.3005 240.473 72.4406 240.836 70.6103C240.991 69.8095 240.836 69.5874 240.419 69.3384L239.82 69.0087C239.86 68.0464 240.399 67.4677 241.24 67.6091C242.323 67.7907 242.64 68.6386 242.438 69.8431C241.98 72.5348 239.914 76.902 236.758 76.3704C236.267 76.3112 235.819 76.0615 235.511 75.675C235.203 75.2886 235.058 74.7963 235.11 74.3046C234.777 74.802 234.303 75.188 233.749 75.4124C233.195 75.6368 232.585 75.6893 232.001 75.5629C231.072 75.4081 229.646 74.8496 230.191 72.38L231.2 67.7436C231.314 67.1986 231.018 67.0707 230.527 67.1178L229.908 67.212L229.773 66.2498C230.49 66.0232 231.247 65.9521 231.994 66.0412C232.202 66.0543 232.403 66.1154 232.583 66.2196C232.763 66.3238 232.917 66.4682 233.031 66.6417C233.146 66.8151 233.219 67.0127 233.245 67.2191C233.27 67.4255 233.247 67.635 233.178 67.8311L232.196 72.2858C231.933 73.4432 231.927 74.0959 232.754 74.2373C234.47 74.5266 235.338 72.2185 235.796 69.4865C235.926 68.7182 236.011 67.9431 236.052 67.1649L237.902 67.2659C237.904 68.0088 237.834 68.7502 237.694 69.4798Z" fill="#E0E0E0"/>
<path d="M286.284 56.7406L291.068 51.3976L289.42 50.6507L289.749 49.7288L294.608 50.8122L294.238 51.8081H292.549L286.492 58.3152L285.436 62.2854L287.273 62.9583L286.93 63.9138L281.351 62.6757L281.688 61.7134L283.404 61.8211L284.514 57.8778L282.166 49.426L280.719 48.7531L281.089 47.7773L286.472 48.9684L286.129 49.9509L284.4 49.8432L286.21 56.6935L286.284 56.7406Z" fill="#E0E0E0"/>
</svg>
