<svg width="342" height="291" viewBox="0 0 342 291" fill="none" xmlns="http://www.w3.org/2000/svg">
<path d="M341.227 255.348H0.773438V255.542H341.227V255.348Z" fill="#EBEBEB"/>
<path d="M307.114 267.873H284.562V268.068H307.114V267.873Z" fill="#EBEBEB"/>
<path d="M226.308 269.99H220.391V270.185H226.308V269.99Z" fill="#EBEBEB"/>
<path d="M283.879 260.648H270.812V260.843H283.879V260.648Z" fill="#EBEBEB"/>
<path d="M65.9005 261.957H36.4922V262.152H65.9005V261.957Z" fill="#EBEBEB"/>
<path d="M76.2789 261.957H71.9688V262.152H76.2789V261.957Z" fill="#EBEBEB"/>
<path d="M154.076 265.242H90.2891V265.437H154.076V265.242Z" fill="#EBEBEB"/>
<path d="M162.146 220.631H30.6702C29.6403 220.629 28.6531 220.16 27.9254 219.326C27.1978 218.493 26.7891 217.364 26.7891 216.186V4.90573C26.798 3.73504 27.2107 2.61567 27.9374 1.79075C28.6641 0.965839 29.6461 0.502005 30.6702 0.5H162.146C163.178 0.5 164.167 0.968275 164.896 1.80181C165.625 2.63534 166.034 3.76586 166.034 4.94465V216.186C166.034 217.365 165.625 218.496 164.896 219.329C164.167 220.163 163.178 220.631 162.146 220.631ZM30.6702 0.65568C29.6854 0.657742 28.7415 1.10642 28.0458 1.90324C27.35 2.70006 26.9593 3.7799 26.9593 4.90573V216.186C26.9593 217.312 27.35 218.392 28.0458 219.189C28.7415 219.986 29.6854 220.434 30.6702 220.436H162.146C163.132 220.434 164.076 219.986 164.773 219.189C165.47 218.393 165.862 217.313 165.864 216.186V4.90573C165.862 3.77918 165.47 2.69936 164.773 1.90276C164.076 1.10617 163.132 0.657738 162.146 0.65568H30.6702Z" fill="#EBEBEB"/>
<path d="M309.441 220.631H177.958C176.928 220.629 175.94 220.16 175.211 219.327C174.482 218.494 174.072 217.365 174.07 216.186V4.90573C174.081 3.73433 174.495 2.61497 175.223 1.79027C175.951 0.965567 176.934 0.501984 177.958 0.5H309.441C310.464 0.504051 311.445 0.96879 312.17 1.79349C312.895 2.61818 313.307 3.73639 313.316 4.90573V216.186C313.316 217.362 312.908 218.491 312.182 219.324C311.456 220.157 310.47 220.627 309.441 220.631ZM177.958 0.65568C176.973 0.657738 176.028 1.10617 175.331 1.90276C174.635 2.69936 174.242 3.77918 174.241 4.90573V216.186C174.242 217.313 174.635 218.393 175.331 219.189C176.028 219.986 176.973 220.434 177.958 220.436H309.441C310.427 220.434 311.371 219.986 312.068 219.189C312.765 218.393 313.157 217.313 313.159 216.186V4.90573C313.157 3.77918 312.765 2.69936 312.068 1.90276C311.371 1.10617 310.427 0.657738 309.441 0.65568H177.958Z" fill="#EBEBEB"/>
<path d="M107.348 185.386L97.9173 194.399L111.352 216.724L122.083 209.874C127.835 216.19 134.578 221.207 141.958 224.664L140.869 238.62L164.19 243.532L167.533 230.05C175.495 229.842 183.35 227.914 190.684 224.368L198.569 235.149L218.097 219.791L212.119 207.554C217.645 200.983 222.034 193.276 225.056 184.841L237.258 186.086L241.568 159.442L229.775 155.612C229.588 146.511 227.902 137.532 224.804 129.146L234.235 120.132L220.8 97.8158L210.063 104.658C204.312 98.343 197.572 93.3254 190.194 89.8683L191.283 75.9117L167.976 70.9922L164.632 84.4663C156.672 84.6827 148.818 86.6103 141.482 90.1486L133.549 79.321L114.034 94.6866L120.02 106.954C114.495 113.53 110.106 121.239 107.082 129.676L94.8736 128.43L90.5703 155.075L102.357 158.897C102.546 168.007 104.239 176.994 107.348 185.386ZM134.523 150.568C135.676 143.434 138.654 136.852 143.08 131.654C147.506 126.455 153.181 122.873 159.387 121.362C165.593 119.85 172.053 120.476 177.948 123.161C183.843 125.846 188.909 130.469 192.506 136.446C196.102 142.422 198.068 149.484 198.154 156.737C198.24 163.991 196.443 171.111 192.989 177.197C189.535 183.282 184.581 188.061 178.752 190.928C172.922 193.794 166.481 194.621 160.241 193.302C151.873 191.534 144.463 186.038 139.64 178.024C134.817 170.01 132.976 160.133 134.523 150.568Z" fill="#F0F0F0"/>
<path d="M264.549 171.616L271.916 173.173L272.971 168.915C275.491 168.846 277.976 168.236 280.298 167.117L282.79 170.527L288.966 165.669L287.073 161.777C288.819 159.702 290.206 157.267 291.158 154.601L295.019 154.99L296.381 146.575L292.65 145.361C292.594 142.48 292.06 139.638 291.077 136.985L294.059 134.136L289.81 127.084L286.406 129.248C284.587 127.256 282.458 125.672 280.128 124.578L280.468 120.172L273.101 118.615L272.045 122.873C269.526 122.943 267.041 123.553 264.719 124.671L262.247 121.262L256.071 126.119L257.964 130.011C256.218 132.086 254.831 134.522 253.879 137.188L250.018 136.799L248.656 145.213L252.381 146.427C252.44 149.308 252.973 152.149 253.954 154.803L250.971 157.652L255.22 164.704L258.625 162.54C260.443 164.537 262.575 166.122 264.909 167.211L264.549 171.616ZM262.54 143.789C262.903 141.532 263.844 139.45 265.243 137.805C266.642 136.16 268.437 135.026 270.4 134.547C272.362 134.068 274.405 134.265 276.27 135.114C278.135 135.963 279.737 137.424 280.875 139.315C282.013 141.205 282.635 143.438 282.662 145.732C282.689 148.026 282.121 150.278 281.028 152.203C279.936 154.128 278.369 155.639 276.525 156.545C274.681 157.451 272.643 157.712 270.67 157.294C268.027 156.732 265.686 154.995 264.162 152.463C262.638 149.931 262.055 146.812 262.54 143.789Z" fill="#F0F0F0"/>
<path d="M57.7658 195.598L63.3764 196.789L64.1867 193.543C66.104 193.488 67.9953 193.023 69.7633 192.173L71.6631 194.765L76.3681 191.068L74.9246 188.095C76.2525 186.518 77.3083 184.67 78.0364 182.646L80.9779 182.942L82.0128 176.528L79.1735 175.64C79.1312 173.445 78.7245 171.279 77.9751 169.257L80.2493 167.086L77.0082 161.715L74.4276 163.365C73.0473 161.847 71.4307 160.638 69.6612 159.8L69.9268 156.445L64.3093 155.254L63.5058 158.5C61.5864 158.556 59.6928 159.02 57.9224 159.87L56.0295 157.278L51.3244 160.975L52.7679 163.933C51.4394 165.509 50.3836 167.357 49.6562 169.382L46.7147 169.086L45.6797 175.5L48.4986 176.419C48.5409 178.614 48.9476 180.78 49.697 182.801L47.4228 184.981L50.6571 190.352L53.2446 188.709C54.6257 190.224 56.2422 191.431 58.0109 192.267L57.7658 195.598ZM56.2405 174.403C56.5191 172.686 57.2365 171.103 58.302 169.853C59.3676 168.603 60.7334 167.742 62.227 167.379C63.7205 167.016 65.2746 167.167 66.6929 167.814C68.1112 168.46 69.3299 169.573 70.195 171.011C71.0601 172.45 71.5328 174.149 71.5532 175.894C71.5737 177.64 71.1411 179.353 70.31 180.817C69.4789 182.282 68.2867 183.431 66.8841 184.121C65.4815 184.811 63.9315 185.01 62.43 184.693C60.416 184.266 58.6328 182.942 57.4722 181.012C56.3117 179.083 55.8687 176.705 56.2405 174.403Z" fill="#F0F0F0"/>
<path d="M157.949 52.6537L162.198 53.5489L162.818 51.0969C164.272 51.0636 165.707 50.7122 167.046 50.0617L168.483 52.031L172.037 49.2288L170.948 46.9948C171.953 45.7957 172.753 44.3909 173.304 42.8537L175.523 43.0794L176.306 38.23L174.162 37.5294C174.126 35.8702 173.819 34.2333 173.256 32.7034L174.972 31.061L172.527 26.9977L170.573 28.2432C169.524 27.0934 168.295 26.1798 166.951 25.5499L167.148 23.0123L162.899 22.1094L162.293 24.5691C160.841 24.6017 159.408 24.9531 158.072 25.6044L156.635 23.635L153.074 26.4373L154.17 28.6713C153.163 29.8686 152.363 31.2739 151.814 32.8124L149.588 32.5866L148.805 37.436L150.95 38.1366C150.984 39.796 151.291 41.4331 151.855 42.9627L150.139 44.6051L152.591 48.6683L154.545 47.4229C155.59 48.5737 156.817 49.4876 158.16 50.1161L157.949 52.6537ZM156.799 36.6109C157.009 35.3123 157.551 34.1141 158.357 33.1679C159.163 32.2216 160.197 31.5698 161.327 31.2948C162.457 31.0198 163.632 31.134 164.706 31.6229C165.779 32.1118 166.701 32.9535 167.356 34.0416C168.011 35.1296 168.369 36.4152 168.385 37.7358C168.4 39.0564 168.073 40.3527 167.445 41.4608C166.816 42.569 165.914 43.4391 164.853 43.9614C163.792 44.4837 162.619 44.6345 161.483 44.3949C159.962 44.0733 158.614 43.0747 157.735 41.6183C156.857 40.1618 156.52 38.3666 156.799 36.6265V36.6109Z" fill="#F0F0F0"/>
<path d="M228.53 91.7203L231.362 92.3118L231.764 90.6772C232.733 90.6509 233.69 90.4158 234.583 89.9844L235.543 91.2999L237.912 89.4318L237.184 87.9373C237.855 87.1401 238.389 86.2052 238.757 85.1817L240.241 85.3296L240.765 82.0915L239.329 81.6244C239.307 80.5193 239.104 79.4287 238.73 78.4097L239.874 77.3121L238.239 74.6033L236.939 75.4362C236.238 74.6702 235.418 74.0604 234.522 73.6381L234.651 71.9412L231.818 71.3418L231.417 72.9842C230.448 73.0079 229.491 73.2403 228.598 73.6692L227.638 72.3615L225.268 74.2297L225.997 75.7164C225.327 76.5177 224.793 77.4548 224.424 78.4797L222.939 78.3318L222.422 81.5622L223.852 82.0292C223.872 83.1378 224.077 84.2318 224.458 85.2518L223.307 86.3415L224.941 89.0582L226.249 88.2253C226.946 88.9928 227.764 89.6028 228.659 90.0234L228.53 91.7203ZM227.76 81.0173C227.9 80.1494 228.261 79.3483 228.799 78.7155C229.337 78.0826 230.028 77.6464 230.782 77.4621C231.537 77.2777 232.323 77.3535 233.04 77.6798C233.758 78.0062 234.374 78.5684 234.812 79.2954C235.249 80.0223 235.488 80.8814 235.499 81.7638C235.509 82.6461 235.29 83.5122 234.87 84.2524C234.45 84.9926 233.847 85.5736 233.137 85.9219C232.428 86.2703 231.645 86.3702 230.886 86.2092C229.869 85.9936 228.969 85.3258 228.383 84.3523C227.797 83.3789 227.573 82.1795 227.76 81.0173Z" fill="#F0F0F0"/>
<path d="M97.9789 52.7066L100.811 53.306L101.213 51.6713C102.182 51.6412 103.138 51.4063 104.032 50.9786L104.992 52.2863L107.362 50.4181L106.633 48.9314C107.305 48.1314 107.838 47.1939 108.206 46.1681L109.691 46.3238L110.215 43.0856L108.778 42.6186C108.757 41.511 108.553 40.4178 108.179 39.396L109.323 38.3063L107.689 35.5896L106.381 36.4225C105.686 35.6548 104.867 35.047 103.971 34.6322L104.1 32.9353L101.268 32.3359L100.873 33.9706C99.9034 33.9969 98.947 34.232 98.0538 34.6633L97.0937 33.3556L94.7446 35.216L95.4732 36.7105C94.8017 37.5105 94.2681 38.448 93.9003 39.4738L92.4159 39.3182L91.8984 42.5563L93.3283 43.0233C93.3481 44.1295 93.5538 45.2209 93.9343 46.2381L92.7836 47.3357L94.4178 50.0523L95.7251 49.2194C96.4228 49.9844 97.2406 50.5918 98.1355 51.0097L97.9789 52.7066ZM97.2095 42.0114C97.3491 41.1435 97.7108 40.3424 98.2487 39.7096C98.7867 39.0767 99.4768 38.6405 100.232 38.4562C100.987 38.2718 101.772 38.3476 102.49 38.674C103.207 39.0003 103.823 39.5626 104.261 40.2895C104.698 41.0165 104.938 41.8755 104.948 42.7579C104.958 43.6403 104.74 44.5064 104.319 45.2465C103.899 45.9867 103.296 46.5677 102.587 46.9161C101.878 47.2644 101.094 47.3644 100.335 47.2033C99.3186 46.9877 98.4186 46.3199 97.8327 45.3465C97.2467 44.3731 97.0226 43.1736 97.2095 42.0114Z" fill="#F0F0F0"/>
<path d="M223.848 225.272C223.884 227.205 224.242 229.112 224.903 230.892L222.901 232.807L225.754 237.531L228.028 236.084C229.25 237.414 230.68 238.471 232.243 239.197L232.012 242.155L236.955 243.198L237.636 240.341C239.324 240.292 240.989 239.883 242.545 239.135L244.22 241.416L248.36 238.162L247.121 235.578C248.286 234.182 249.21 232.547 249.845 230.759L252.432 231.024L253.385 225.381L250.886 224.602C250.85 222.669 250.492 220.762 249.831 218.982L251.833 217.075L248.987 212.342L246.678 213.782C245.461 212.449 244.033 211.392 242.47 210.669L242.695 207.703L237.759 206.66L237.078 209.517C235.388 209.567 233.721 209.976 232.162 210.723L230.487 208.443L226.347 211.696L227.62 214.296C226.455 215.692 225.531 217.327 224.896 219.115L222.309 218.85L221.383 224.462L223.848 225.272ZM230.657 223.512C230.899 221.997 231.53 220.598 232.469 219.492C233.407 218.387 234.612 217.624 235.93 217.302C237.248 216.98 238.62 217.112 239.872 217.681C241.125 218.251 242.201 219.233 242.965 220.502C243.728 221.772 244.146 223.272 244.163 224.812C244.181 226.353 243.798 227.865 243.063 229.157C242.329 230.448 241.275 231.462 240.036 232.069C238.797 232.675 237.429 232.848 236.104 232.565C234.334 232.185 232.769 231.019 231.749 229.323C230.729 227.626 230.339 225.537 230.664 223.512H230.657Z" fill="#F0F0F0"/>
<path d="M266.621 191.754L259.015 194.937L266.621 198.098V201.328L255.727 196.603V193.209L266.621 188.484V191.754Z" fill="#E0E0E0"/>
<path d="M274.803 182.084H277.983L270.445 206.689H267.266L274.803 182.084Z" fill="#E0E0E0"/>
<path d="M289.277 193.241V196.658L278.383 201.383V198.121L285.989 194.961L278.383 191.777V188.539L289.277 193.241Z" fill="#E0E0E0"/>
<path d="M77.6017 233.303C78.6912 233.677 79.195 234.463 79.195 236.339V240.675C79.1632 240.944 79.1858 241.218 79.2611 241.476C79.3363 241.735 79.4622 241.969 79.6292 242.163C79.7961 242.357 79.9996 242.505 80.2241 242.595C80.4487 242.685 80.6883 242.715 80.9245 242.683H81.3535V245.991H79.9917C77.0229 245.991 75.5045 244.255 75.5045 241.134V236.23C75.5045 235.358 75.1028 234.953 74.4627 234.953H73.6797V231.684H74.4627C75.1028 231.684 75.5045 231.279 75.5045 230.407V225.457C75.5045 222.343 77.0229 220.607 79.9917 220.607H81.3535V223.9H80.9245C80.6883 223.868 80.4487 223.898 80.2241 223.988C79.9996 224.078 79.7961 224.226 79.6292 224.42C79.4622 224.613 79.3363 224.848 79.2611 225.106C79.1858 225.364 79.1632 225.639 79.195 225.908V230.244C79.195 232.136 78.6912 232.922 77.6017 233.303Z" fill="#E0E0E0"/>
<path d="M96.4843 231.686V234.994H95.7013C95.5543 234.979 95.4063 235.003 95.2684 235.063C95.1305 235.123 95.0064 235.218 94.9054 235.341C94.8044 235.464 94.7292 235.611 94.6854 235.773C94.6416 235.934 94.6304 236.104 94.6527 236.271V241.175C94.6527 244.288 93.1342 246.032 90.1723 246.032H88.8105V242.724H89.2395C89.4757 242.756 89.7153 242.726 89.9398 242.636C90.1644 242.546 90.3679 242.398 90.5348 242.204C90.7018 242.01 90.8277 241.775 90.9029 241.517C90.9782 241.259 91.0008 240.985 90.969 240.715V236.356C90.969 234.48 91.466 233.694 92.5555 233.321C91.466 232.939 90.969 232.153 90.969 230.277V225.926C91.0035 225.654 90.9825 225.376 90.9076 225.115C90.8326 224.853 90.7058 224.615 90.5369 224.419C90.3681 224.223 90.1619 224.074 89.9345 223.985C89.707 223.895 89.4645 223.867 89.2258 223.902H88.7969V220.594H90.1587C93.1206 220.594 94.6391 222.33 94.6391 225.443V230.355C94.6168 230.522 94.628 230.692 94.6718 230.853C94.7156 231.014 94.7908 231.162 94.8918 231.285C94.9928 231.408 95.1169 231.503 95.2548 231.563C95.3927 231.623 95.5407 231.646 95.6876 231.631L96.4843 231.686Z" fill="#E0E0E0"/>
<path d="M67.8359 75.329C67.8359 69.9892 71.4175 66.1751 76.2383 66.1751C77.4359 66.1141 78.6302 66.3623 79.7324 66.9013C80.8345 67.4404 81.8163 68.2563 82.6048 69.2887L80.3033 71.7095C79.8313 71.0548 79.2372 70.5291 78.5644 70.1709C77.8917 69.8126 77.1575 69.6309 76.4154 69.6389C75.7494 69.6107 75.0853 69.7363 74.4627 70.0081C73.8402 70.28 73.272 70.6926 72.7921 71.2212C72.3122 71.7499 71.9305 72.3837 71.6698 73.0848C71.4091 73.7859 71.2747 74.5399 71.2747 75.3018C71.2747 76.0636 71.4091 76.8176 71.6698 77.5188C71.9305 78.2199 72.3122 78.8537 72.7921 79.3823C73.272 79.911 73.8402 80.3235 74.4627 80.5954C75.0853 80.8673 75.7494 80.9929 76.4154 80.9646C77.1604 80.974 77.8975 80.7897 78.571 80.4256C79.2446 80.0615 79.8369 79.5272 80.3033 78.863L82.6048 81.2916C81.8197 82.3378 80.8367 83.166 79.7301 83.7136C78.6235 84.2611 77.4225 84.5136 76.2179 84.4519C71.4175 84.4752 67.8359 80.6766 67.8359 75.329Z" fill="#E0E0E0"/>
<path d="M94.9419 76.8693H91.0948V81.1661H88.2418V76.8693H84.4219V73.7557H88.2418V69.4512H91.0948V73.7557H94.9419V76.8693Z" fill="#E0E0E0"/>
<path d="M108.355 76.8693H104.508V81.1661H101.655V76.8693H97.8281V73.7557H101.655V69.4512H104.508V73.7557H108.355V76.8693Z" fill="#E0E0E0"/>
<path d="M124.734 164.454L126.968 161.387C127.914 162.835 128.963 163.574 130.202 163.574C131.823 163.574 132.667 162.461 132.667 160.274V150.809H126.539V147.111H136.664V160.017C136.664 164.937 134.499 167.357 130.393 167.357C129.318 167.404 128.248 167.166 127.267 166.662C126.285 166.159 125.419 165.403 124.734 164.454Z" fill="#E0E0E0"/>
<path d="M139.094 165.591L140.36 162.408C141.767 163.366 143.373 163.876 145.011 163.887C146.802 163.887 147.476 163.349 147.476 162.493C147.476 159.995 139.393 162.548 139.393 156.437C139.393 153.534 141.681 151.487 145.583 151.487C147.371 151.447 149.14 151.907 150.737 152.826L149.444 155.986C148.267 155.223 146.935 154.828 145.583 154.842C143.846 154.842 143.097 155.472 143.097 156.266C143.097 158.881 151.18 156.352 151.18 162.376C151.18 165.225 148.872 167.241 144.861 167.241C142.845 167.281 140.856 166.711 139.094 165.591Z" fill="#E0E0E0"/>
<path d="M170.997 290.502C243.911 290.502 303.018 286.557 303.018 281.69C303.018 276.824 243.911 272.879 170.997 272.879C98.0843 272.879 38.9766 276.824 38.9766 281.69C38.9766 286.557 98.0843 290.502 170.997 290.502Z" fill="#F5F5F5"/>
<path d="M222.716 30.0859H202.405C201.551 30.0859 200.859 30.877 200.859 31.8529V55.0725C200.859 56.0484 201.551 56.8395 202.405 56.8395H222.716C223.57 56.8395 224.262 56.0484 224.262 55.0725V31.8529C224.262 30.877 223.57 30.0859 222.716 30.0859Z" fill="#004324"/>
<g opacity="0.4">
<path d="M222.716 30.0859H202.405C201.551 30.0859 200.859 30.877 200.859 31.8529V55.0725C200.859 56.0484 201.551 56.8395 202.405 56.8395H222.716C223.57 56.8395 224.262 56.0484 224.262 55.0725V31.8529C224.262 30.877 223.57 30.0859 222.716 30.0859Z" fill="white"/>
</g>
<path d="M209.411 42.0543L205.325 43.759L209.411 45.4481V47.2073L203.609 44.6775V42.8716L209.411 40.3418V42.0543Z" fill="white"/>
<path d="M213.789 36.9004H215.484L211.453 50.032H209.758L213.789 36.9004Z" fill="white"/>
<path d="M221.504 42.856V44.6619L215.703 47.2073V45.4637L219.789 43.7745L215.703 42.0698V40.3418L221.504 42.856Z" fill="white"/>
<path d="M206.013 61.7285V68.2203H204.698V65.5504H202.111V68.2203H200.797V61.7207H202.111V64.3283H204.698V61.7674L206.013 61.7285Z" fill="#263238"/>
<path d="M208.544 62.9525H206.719V61.7305H211.676V62.9525H209.858V68.2223H208.544V62.9525Z" fill="#263238"/>
<path d="M217.563 68.2203V64.3283L215.887 67.5431H215.268L213.6 64.4295V68.2203H212.367V61.7207H213.457L215.581 65.7606L217.678 61.7207H218.761V68.2203H217.563Z" fill="#263238"/>
<path d="M220.156 61.7305H221.47V67.0002H224.323V68.2223H220.156V61.7305Z" fill="#263238"/>
<g opacity="0.6">
<path d="M206.013 61.7285V68.2203H204.698V65.5504H202.111V68.2203H200.797V61.7207H202.111V64.3283H204.698V61.7674L206.013 61.7285Z" fill="white"/>
<path d="M208.544 62.9486H206.719V61.7266H211.676V62.9486H209.858V68.2184H208.544V62.9486Z" fill="white"/>
<path d="M217.563 68.2203V64.3283L215.887 67.5431H215.268L213.6 64.4295V68.2203H212.367V61.7207H213.457L215.581 65.7606L217.678 61.7207H218.761V68.2203H217.563Z" fill="white"/>
<path d="M220.156 61.7266H221.47V66.9963H224.323V68.2184H220.156V61.7266Z" fill="white"/>
</g>
<path d="M272.771 44.3477H252.46C251.606 44.3477 250.914 45.1388 250.914 46.1146V69.3342C250.914 70.3101 251.606 71.1012 252.46 71.1012H272.771C273.625 71.1012 274.317 70.3101 274.317 69.3342V46.1146C274.317 45.1388 273.625 44.3477 272.771 44.3477Z" fill="#004324"/>
<g opacity="0.4">
<path d="M272.763 44.3496H252.452C251.598 44.3496 250.906 45.1407 250.906 46.1166V69.3362C250.906 70.3121 251.598 71.1032 252.452 71.1032H272.763C273.617 71.1032 274.309 70.3121 274.309 69.3362V46.1166C274.309 45.1407 273.617 44.3496 272.763 44.3496Z" fill="white"/>
</g>
<path d="M258.776 57.7202C259.335 57.9148 259.593 58.3196 259.593 59.277V61.511C259.578 61.6494 259.591 61.79 259.63 61.9222C259.669 62.0543 259.734 62.1744 259.82 62.2734C259.906 62.3725 260.011 62.4478 260.126 62.4937C260.241 62.5397 260.364 62.555 260.485 62.5385H260.703V64.2432H260.022C258.497 64.2432 257.721 63.348 257.721 61.7445V59.2225C257.731 59.1372 257.725 59.0504 257.702 58.9683C257.679 58.8862 257.641 58.8111 257.589 58.7483C257.537 58.6856 257.474 58.6369 257.404 58.6058C257.334 58.5747 257.258 58.562 257.183 58.5687H256.781V56.864H257.183C257.258 56.8706 257.334 56.8579 257.404 56.8268C257.474 56.7957 257.537 56.747 257.589 56.6843C257.641 56.6216 257.679 56.5464 257.702 56.4643C257.725 56.3823 257.731 56.2954 257.721 56.2101V53.6881C257.721 52.0846 258.497 51.1895 260.022 51.1895H260.703V52.8941H260.485C260.364 52.8777 260.241 52.893 260.126 52.9389C260.011 52.9848 259.906 53.0602 259.82 53.1592C259.734 53.2583 259.669 53.3784 259.63 53.5105C259.591 53.6426 259.578 53.7832 259.593 53.9216V56.1556C259.593 57.1208 259.335 57.5256 258.776 57.7202Z" fill="white"/>
<path d="M268.469 56.8718V58.5765H268.067C267.992 58.5699 267.917 58.5826 267.846 58.6137C267.776 58.6447 267.713 58.6934 267.661 58.7562C267.61 58.8189 267.571 58.8941 267.548 58.9761C267.525 59.0582 267.519 59.1451 267.529 59.2304V61.7524C267.529 63.3559 266.746 64.251 265.228 64.251H264.547V62.5463H264.765C264.886 62.5628 265.009 62.5475 265.124 62.5016C265.239 62.4557 265.344 62.3803 265.43 62.2813C265.516 62.1822 265.581 62.0621 265.62 61.93C265.66 61.7979 265.672 61.6573 265.657 61.5189V59.2849C265.657 58.3196 265.909 57.9149 266.474 57.7281C265.909 57.5335 265.657 57.1287 265.657 56.1713V53.9373C265.672 53.7988 265.66 53.6582 265.62 53.5261C265.581 53.394 265.516 53.2739 265.43 53.1748C265.344 53.0758 265.239 53.0005 265.124 52.9545C265.009 52.9086 264.886 52.8933 264.765 52.9098H264.547V51.2051H265.228C266.746 51.2051 267.529 52.1002 267.529 53.7037V56.2257C267.519 56.311 267.525 56.3979 267.548 56.48C267.571 56.562 267.61 56.6372 267.661 56.6999C267.713 56.7627 267.776 56.8114 267.846 56.8425C267.917 56.8736 267.992 56.8862 268.067 56.8796L268.469 56.8718Z" fill="white"/>
<path d="M254.766 79.3365C254.799 78.6312 255.015 77.9531 255.385 77.3874C255.755 76.8217 256.263 76.3938 256.845 76.1575C257.428 75.9212 258.058 75.887 258.657 76.0593C259.256 76.2317 259.798 76.6027 260.213 77.1259L259.369 78.021C259.197 77.7768 258.979 77.58 258.731 77.4453C258.484 77.3105 258.213 77.2413 257.939 77.2426C257.69 77.2253 257.441 77.2662 257.207 77.363C256.973 77.4598 256.758 77.6103 256.577 77.8054C256.396 78.0005 256.251 78.2359 256.152 78.4972C256.053 78.7585 256.002 79.0402 256.002 79.3249C256.002 79.6095 256.053 79.8912 256.152 80.1525C256.251 80.4138 256.396 80.6493 256.577 80.8443C256.758 81.0394 256.973 81.1899 257.207 81.2867C257.441 81.3835 257.69 81.4245 257.939 81.4071C258.213 81.4079 258.484 81.3384 258.731 81.2037C258.978 81.069 259.196 80.8725 259.369 80.6287L260.213 81.5161C259.8 82.0426 259.259 82.4169 258.659 82.5917C258.06 82.7666 257.428 82.7339 256.845 82.498C256.261 82.2621 255.752 81.8335 255.382 81.2665C255.012 80.6995 254.797 80.0197 254.766 79.3132V79.3365Z" fill="#263238"/>
<path d="M260.555 81.9514L260.997 80.8149C261.552 81.2475 262.205 81.4831 262.877 81.4921C263.653 81.4921 263.973 81.1963 263.973 80.7993C263.973 79.5773 260.664 80.4179 260.664 78.0049C260.664 76.8996 261.447 75.9733 263.06 75.9733C263.752 75.96 264.434 76.1589 265.035 76.5493L264.633 77.6935C264.154 77.3725 263.609 77.1982 263.054 77.1876C262.277 77.1876 261.971 77.5145 261.971 77.9271C261.971 79.1258 265.28 78.3007 265.28 80.6826C265.28 81.7723 264.49 82.6986 262.87 82.6986C262.05 82.7208 261.243 82.4604 260.555 81.9514Z" fill="#263238"/>
<path d="M265.75 81.9513L266.199 80.8148C266.752 81.2508 267.407 81.4868 268.079 81.492C268.855 81.492 269.175 81.1962 269.175 80.7992C269.175 79.5772 265.866 80.4178 265.866 78.0048C265.866 76.8995 266.649 75.9732 268.263 75.9732C268.954 75.9611 269.635 76.1599 270.237 76.5492L269.829 77.6934C269.352 77.3717 268.81 77.1973 268.256 77.1875C267.473 77.1875 267.173 77.5144 267.173 77.927C267.173 79.1257 270.482 78.3006 270.482 80.6825C270.482 81.7722 269.692 82.6985 268.065 82.6985C267.245 82.7207 266.439 82.4603 265.75 81.9513Z" fill="#263238"/>
<g opacity="0.6">
<path d="M254.773 79.3385C254.807 78.6332 255.023 77.955 255.393 77.3893C255.763 76.8237 256.271 76.3958 256.853 76.1594C257.435 75.9231 258.066 75.889 258.665 76.0613C259.264 76.2336 259.806 76.6047 260.221 77.1278L259.376 78.023C259.204 77.7788 258.987 77.582 258.739 77.4472C258.492 77.3125 258.221 77.2432 257.946 77.2446C257.698 77.2272 257.449 77.2682 257.215 77.365C256.98 77.4617 256.766 77.6123 256.585 77.8074C256.403 78.0024 256.259 78.2378 256.16 78.4992C256.061 78.7605 256.01 79.0421 256.01 79.3268C256.01 79.6115 256.061 79.8932 256.16 80.1545C256.259 80.4158 256.403 80.6512 256.585 80.8463C256.766 81.0413 256.98 81.1919 257.215 81.2887C257.449 81.3855 257.698 81.4264 257.946 81.409C258.221 81.4099 258.491 81.3404 258.739 81.2056C258.986 81.0709 259.204 80.8744 259.376 80.6306L260.221 81.518C259.807 82.0445 259.267 82.4189 258.667 82.5937C258.067 82.7685 257.436 82.7359 256.852 82.5C256.269 82.264 255.76 81.8354 255.39 81.2684C255.02 80.7015 254.805 80.0216 254.773 79.3151V79.3385Z" fill="white"/>
<path d="M260.57 81.9514L261.013 80.8149C261.567 81.2475 262.221 81.4831 262.892 81.4921C263.668 81.4921 263.988 81.1963 263.988 80.7993C263.988 79.5773 260.679 80.4179 260.679 78.0049C260.679 76.8996 261.462 75.9733 263.076 75.9733C263.767 75.96 264.449 76.1589 265.051 76.5493L264.649 77.6935C264.169 77.3725 263.625 77.1982 263.069 77.1876C262.293 77.1876 261.987 77.5145 261.987 77.9271C261.987 79.1258 265.296 78.3007 265.296 80.6826C265.296 81.7723 264.506 82.6986 262.885 82.6986C262.066 82.7208 261.259 82.4604 260.57 81.9514Z" fill="white"/>
<path d="M265.75 81.9513L266.199 80.8148C266.752 81.2508 267.407 81.4868 268.079 81.492C268.855 81.492 269.175 81.1962 269.175 80.7992C269.175 79.5772 265.866 80.4178 265.866 78.0048C265.866 76.8995 266.649 75.9732 268.263 75.9732C268.954 75.9611 269.635 76.1599 270.237 76.5492L269.829 77.6934C269.352 77.3717 268.81 77.1973 268.256 77.1875C267.473 77.1875 267.173 77.5144 267.173 77.927C267.173 79.1257 270.482 78.3006 270.482 80.6825C270.482 81.7722 269.692 82.6985 268.065 82.6985C267.245 82.7207 266.439 82.4603 265.75 81.9513Z" fill="white"/>
</g>
<path d="M185.332 41.7402H101.914V110.769H185.332V41.7402Z" fill="#333333"/>
<path opacity="0.9" d="M185.332 41.7402H101.914V110.769H185.332V41.7402Z" fill="white"/>
<path opacity="0.1" d="M113.53 41.7402H101.914V110.769H113.53V41.7402Z" fill="#333333"/>
<path d="M185.332 41.7402H101.914V48.1932H185.332V41.7402Z" fill="#004324"/>
<g opacity="0.2">
<path d="M135.388 57.9279H120.197C120.016 57.9279 119.843 57.8459 119.715 57.6999C119.587 57.5539 119.516 57.3559 119.516 57.1495C119.516 56.943 119.587 56.7451 119.715 56.5991C119.843 56.4531 120.016 56.3711 120.197 56.3711H135.388C135.568 56.3711 135.741 56.4531 135.869 56.5991C135.997 56.7451 136.068 56.943 136.068 57.1495C136.068 57.3559 135.997 57.5539 135.869 57.6999C135.741 57.8459 135.568 57.9279 135.388 57.9279Z" fill="#333333"/>
<path d="M168.948 57.9279H139.431C139.25 57.9279 139.077 57.8459 138.949 57.6999C138.822 57.5539 138.75 57.3559 138.75 57.1495C138.75 56.943 138.822 56.7451 138.949 56.5991C139.077 56.4531 139.25 56.3711 139.431 56.3711H168.948C169.129 56.3711 169.302 56.4531 169.43 56.5991C169.557 56.7451 169.629 56.943 169.629 57.1495C169.629 57.3559 169.557 57.5539 169.43 57.6999C169.302 57.8459 169.129 57.9279 168.948 57.9279Z" fill="#333333"/>
<path d="M161.934 63.0119H122.251C122.071 63.0119 121.897 62.9299 121.77 62.7839C121.642 62.6379 121.57 62.4399 121.57 62.2335C121.57 62.027 121.642 61.829 121.77 61.6831C121.897 61.5371 122.071 61.4551 122.251 61.4551H161.934C162.115 61.4551 162.288 61.5371 162.416 61.6831C162.544 61.829 162.615 62.027 162.615 62.2335C162.615 62.4399 162.544 62.6379 162.416 62.7839C162.288 62.9299 162.115 63.0119 161.934 63.0119Z" fill="#333333"/>
<path d="M145.758 68.0861H120.197C120.016 68.0861 119.843 68.0041 119.715 67.8581C119.587 67.7121 119.516 67.5141 119.516 67.3077C119.516 67.1013 119.587 66.9033 119.715 66.7573C119.843 66.6113 120.016 66.5293 120.197 66.5293H145.758C145.938 66.5293 146.112 66.6113 146.239 66.7573C146.367 66.9033 146.439 67.1013 146.439 67.3077C146.439 67.5141 146.367 67.7121 146.239 67.8581C146.112 68.0041 145.938 68.0861 145.758 68.0861Z" fill="#333333"/>
<path d="M168.95 68.0861H150.634C150.453 68.0861 150.28 68.0041 150.153 67.8581C150.025 67.7121 149.953 67.5141 149.953 67.3077C149.953 67.1013 150.025 66.9033 150.153 66.7573C150.28 66.6113 150.453 66.5293 150.634 66.5293H168.95C169.131 66.5293 169.304 66.6113 169.432 66.7573C169.56 66.9033 169.631 67.1013 169.631 67.3077C169.631 67.5141 169.56 67.7121 169.432 67.8581C169.304 68.0041 169.131 68.0861 168.95 68.0861Z" fill="#333333"/>
<path d="M134.312 73.1681H120.197C120.016 73.1681 119.843 73.0861 119.715 72.9401C119.587 72.7942 119.516 72.5962 119.516 72.3897C119.516 72.1833 119.587 71.9853 119.715 71.8393C119.843 71.6933 120.016 71.6113 120.197 71.6113H134.312C134.492 71.6113 134.666 71.6933 134.793 71.8393C134.921 71.9853 134.993 72.1833 134.993 72.3897C134.993 72.5962 134.921 72.7942 134.793 72.9401C134.666 73.0861 134.492 73.1681 134.312 73.1681Z" fill="#333333"/>
<path d="M161.117 73.1681H138.892C138.711 73.1681 138.538 73.0861 138.41 72.9401C138.283 72.7942 138.211 72.5962 138.211 72.3897C138.211 72.1833 138.283 71.9853 138.41 71.8393C138.538 71.6933 138.711 71.6113 138.892 71.6113H161.117C161.297 71.6113 161.47 71.6933 161.598 71.8393C161.726 71.9853 161.798 72.1833 161.798 72.3897C161.798 72.5962 161.726 72.7942 161.598 72.9401C161.47 73.0861 161.297 73.1681 161.117 73.1681Z" fill="#333333"/>
<path d="M141.242 78.2521H122.251C122.071 78.2521 121.897 78.1701 121.77 78.0241C121.642 77.8781 121.57 77.6802 121.57 77.4737C121.57 77.2673 121.642 77.0693 121.77 76.9233C121.897 76.7773 122.071 76.6953 122.251 76.6953H141.242C141.422 76.6953 141.595 76.7773 141.723 76.9233C141.851 77.0693 141.923 77.2673 141.923 77.4737C141.923 77.6802 141.851 77.8781 141.723 78.0241C141.595 78.1701 141.422 78.2521 141.242 78.2521Z" fill="#333333"/>
<path d="M143.618 83.3361H122.251C122.071 83.3361 121.897 83.2541 121.77 83.1081C121.642 82.9621 121.57 82.7641 121.57 82.5577C121.57 82.3513 121.642 82.1533 121.77 82.0073C121.897 81.8613 122.071 81.7793 122.251 81.7793H143.618C143.799 81.7793 143.972 81.8613 144.1 82.0073C144.227 82.1533 144.299 82.3513 144.299 82.5577C144.299 82.7641 144.227 82.9621 144.1 83.1081C143.972 83.2541 143.799 83.3361 143.618 83.3361Z" fill="#333333"/>
<path d="M168.962 83.3361H147.173C146.993 83.3361 146.819 83.2541 146.692 83.1081C146.564 82.9621 146.492 82.7641 146.492 82.5577C146.492 82.3513 146.564 82.1533 146.692 82.0073C146.819 81.8613 146.993 81.7793 147.173 81.7793H168.962C169.143 81.7793 169.316 81.8613 169.444 82.0073C169.571 82.1533 169.643 82.3513 169.643 82.5577C169.643 82.7641 169.571 82.9621 169.444 83.1081C169.316 83.2541 169.143 83.3361 168.962 83.3361Z" fill="#333333"/>
<path d="M132.429 88.4103H120.173C119.993 88.4103 119.819 88.3283 119.692 88.1823C119.564 88.0363 119.492 87.8384 119.492 87.6319C119.492 87.4255 119.564 87.2275 119.692 87.0815C119.819 86.9355 119.993 86.8535 120.173 86.8535H132.429C132.61 86.8535 132.783 86.9355 132.911 87.0815C133.039 87.2275 133.11 87.4255 133.11 87.6319C133.11 87.8384 133.039 88.0363 132.911 88.1823C132.783 88.3283 132.61 88.4103 132.429 88.4103Z" fill="#333333"/>
<path d="M168.96 88.4103H136.611C136.43 88.4103 136.257 88.3283 136.129 88.1823C136.001 88.0363 135.93 87.8384 135.93 87.6319C135.93 87.4255 136.001 87.2275 136.129 87.0815C136.257 86.9355 136.43 86.8535 136.611 86.8535H168.96C169.141 86.8535 169.314 86.9355 169.442 87.0815C169.57 87.2275 169.641 87.4255 169.641 87.6319C169.641 87.8384 169.57 88.0363 169.442 88.1823C169.314 88.3283 169.141 88.4103 168.96 88.4103Z" fill="#333333"/>
<path d="M143.482 93.4943H122.251C122.071 93.4943 121.897 93.4123 121.77 93.2663C121.642 93.1203 121.57 92.9223 121.57 92.7159C121.57 92.5095 121.642 92.3115 121.77 92.1655C121.897 92.0195 122.071 91.9375 122.251 91.9375H143.482C143.662 91.9375 143.836 92.0195 143.963 92.1655C144.091 92.3115 144.163 92.5095 144.163 92.7159C144.163 92.9223 144.091 93.1203 143.963 93.2663C143.836 93.4123 143.662 93.4943 143.482 93.4943Z" fill="#333333"/>
<path d="M160.172 93.4943H146.431C146.25 93.4943 146.077 93.4123 145.949 93.2663C145.822 93.1203 145.75 92.9223 145.75 92.7159C145.75 92.5095 145.822 92.3115 145.949 92.1655C146.077 92.0195 146.25 91.9375 146.431 91.9375H160.172C160.352 91.9375 160.525 92.0195 160.653 92.1655C160.781 92.3115 160.853 92.5095 160.853 92.7159C160.853 92.9223 160.781 93.1203 160.653 93.2663C160.525 93.4123 160.352 93.4943 160.172 93.4943Z" fill="#333333"/>
<path d="M146.689 98.5763H122.251C122.071 98.5763 121.897 98.4943 121.77 98.3483C121.642 98.2024 121.57 98.0044 121.57 97.7979C121.57 97.5915 121.642 97.3935 121.77 97.2475C121.897 97.1015 122.071 97.0195 122.251 97.0195H146.689C146.87 97.0195 147.043 97.1015 147.17 97.2475C147.298 97.3935 147.37 97.5915 147.37 97.7979C147.37 98.0044 147.298 98.2024 147.17 98.3483C147.043 98.4943 146.87 98.5763 146.689 98.5763Z" fill="#333333"/>
</g>
<path opacity="0.4" d="M181.742 46.3418C182.386 46.3418 182.907 45.7459 182.907 45.0107C182.907 44.2756 182.386 43.6797 181.742 43.6797C181.099 43.6797 180.578 44.2756 180.578 45.0107C180.578 45.7459 181.099 46.3418 181.742 46.3418Z" fill="white"/>
<path opacity="0.4" d="M177.657 46.3418C178.3 46.3418 178.821 45.7459 178.821 45.0107C178.821 44.2756 178.3 43.6797 177.657 43.6797C177.013 43.6797 176.492 44.2756 176.492 45.0107C176.492 45.7459 177.013 46.3418 177.657 46.3418Z" fill="white"/>
<path opacity="0.4" d="M173.563 46.3418C174.206 46.3418 174.727 45.7459 174.727 45.0107C174.727 44.2756 174.206 43.6797 173.563 43.6797C172.92 43.6797 172.398 44.2756 172.398 45.0107C172.398 45.7459 172.92 46.3418 173.563 46.3418Z" fill="white"/>
<g opacity="0.2">
<path d="M107.923 57.9279C107.743 57.9279 107.569 57.8459 107.442 57.6999C107.314 57.5539 107.242 57.3559 107.242 57.1495C107.242 56.943 107.314 56.7451 107.442 56.5991C107.569 56.4531 107.743 56.3711 107.923 56.3711C108.104 56.3711 108.277 56.4531 108.405 56.5991C108.532 56.7451 108.604 56.943 108.604 57.1495C108.604 57.3559 108.532 57.5539 108.405 57.6999C108.277 57.8459 108.104 57.9279 107.923 57.9279Z" fill="#333333"/>
<path d="M107.923 63.0119C107.743 63.0119 107.569 62.9299 107.442 62.7839C107.314 62.6379 107.242 62.4399 107.242 62.2335C107.242 62.027 107.314 61.829 107.442 61.6831C107.569 61.5371 107.743 61.4551 107.923 61.4551C108.104 61.4551 108.277 61.5371 108.405 61.6831C108.532 61.829 108.604 62.027 108.604 62.2335C108.604 62.4399 108.532 62.6379 108.405 62.7839C108.277 62.9299 108.104 63.0119 107.923 63.0119Z" fill="#333333"/>
<path d="M107.923 68.0861C107.743 68.0861 107.569 68.0041 107.442 67.8581C107.314 67.7121 107.242 67.5141 107.242 67.3077C107.242 67.1013 107.314 66.9033 107.442 66.7573C107.569 66.6113 107.743 66.5293 107.923 66.5293C108.104 66.5293 108.277 66.6113 108.405 66.7573C108.532 66.9033 108.604 67.1013 108.604 67.3077C108.604 67.5141 108.532 67.7121 108.405 67.8581C108.277 68.0041 108.104 68.0861 107.923 68.0861Z" fill="#333333"/>
<path d="M107.923 73.1681C107.743 73.1681 107.569 73.0861 107.442 72.9401C107.314 72.7942 107.242 72.5962 107.242 72.3897C107.242 72.1833 107.314 71.9853 107.442 71.8393C107.569 71.6933 107.743 71.6113 107.923 71.6113C108.104 71.6113 108.277 71.6933 108.405 71.8393C108.532 71.9853 108.604 72.1833 108.604 72.3897C108.604 72.5962 108.532 72.7942 108.405 72.9401C108.277 73.0861 108.104 73.1681 107.923 73.1681Z" fill="#333333"/>
<path d="M107.923 78.2521C107.743 78.2521 107.569 78.1701 107.442 78.0241C107.314 77.8781 107.242 77.6802 107.242 77.4737C107.242 77.2673 107.314 77.0693 107.442 76.9233C107.569 76.7773 107.743 76.6953 107.923 76.6953C108.104 76.6953 108.277 76.7773 108.405 76.9233C108.532 77.0693 108.604 77.2673 108.604 77.4737C108.604 77.6802 108.532 77.8781 108.405 78.0241C108.277 78.1701 108.104 78.2521 107.923 78.2521Z" fill="#333333"/>
<path d="M107.923 83.3361C107.743 83.3361 107.569 83.2541 107.442 83.1081C107.314 82.9621 107.242 82.7641 107.242 82.5577C107.242 82.3513 107.314 82.1533 107.442 82.0073C107.569 81.8613 107.743 81.7793 107.923 81.7793C108.104 81.7793 108.277 81.8613 108.405 82.0073C108.532 82.1533 108.604 82.3513 108.604 82.5577C108.604 82.7641 108.532 82.9621 108.405 83.1081C108.277 83.2541 108.104 83.3361 107.923 83.3361Z" fill="#333333"/>
<path d="M107.923 88.4103C107.743 88.4103 107.569 88.3283 107.442 88.1823C107.314 88.0363 107.242 87.8384 107.242 87.6319C107.242 87.4255 107.314 87.2275 107.442 87.0815C107.569 86.9355 107.743 86.8535 107.923 86.8535C108.104 86.8535 108.277 86.9355 108.405 87.0815C108.532 87.2275 108.604 87.4255 108.604 87.6319C108.604 87.8384 108.532 88.0363 108.405 88.1823C108.277 88.3283 108.104 88.4103 107.923 88.4103Z" fill="#333333"/>
<path d="M107.923 93.4943C107.743 93.4943 107.569 93.4123 107.442 93.2663C107.314 93.1203 107.242 92.9223 107.242 92.7159C107.242 92.5095 107.314 92.3115 107.442 92.1655C107.569 92.0195 107.743 91.9375 107.923 91.9375C108.104 91.9375 108.277 92.0195 108.405 92.1655C108.532 92.3115 108.604 92.5095 108.604 92.7159C108.604 92.9223 108.532 93.1203 108.405 93.2663C108.277 93.4123 108.104 93.4943 107.923 93.4943Z" fill="#333333"/>
<path d="M107.923 98.5763C107.743 98.5763 107.569 98.4943 107.442 98.3483C107.314 98.2024 107.242 98.0044 107.242 97.7979C107.242 97.5915 107.314 97.3935 107.442 97.2475C107.569 97.1015 107.743 97.0195 107.923 97.0195C108.104 97.0195 108.277 97.1015 108.405 97.2475C108.532 97.3935 108.604 97.5915 108.604 97.7979C108.604 98.0044 108.532 98.2024 108.405 98.3483C108.277 98.4943 108.104 98.5763 107.923 98.5763Z" fill="#333333"/>
</g>
<path d="M260.892 98.0645H151.586V178.076H260.892V98.0645Z" fill="#263238"/>
<path opacity="0.9" d="M260.892 98.0645H151.586V178.076H260.892V98.0645Z" fill="white"/>
<path opacity="0.1" d="M168.636 98.0645H151.586V178.076H168.636V98.0645Z" fill="#333333"/>
<path d="M260.892 98.0645H151.586V104.517H260.892V98.0645Z" fill="#004324"/>
<path d="M159.306 111.591L157.495 112.37L159.306 113.148V113.926L156.719 112.798V112.019L159.306 110.898V111.591Z" fill="white"/>
<path d="M161.259 109.291H162.014L160.217 115.152H159.461L161.259 109.291Z" fill="white"/>
<path d="M164.697 111.943V112.721L162.109 113.85V113.072L163.921 112.293L162.109 111.515V110.736L164.697 111.943Z" fill="white"/>
<g opacity="0.2">
<path d="M164.324 120.492H156.915C156.735 120.492 156.562 120.41 156.434 120.264C156.306 120.118 156.234 119.92 156.234 119.714C156.234 119.508 156.306 119.31 156.434 119.164C156.562 119.018 156.735 118.936 156.915 118.936H164.324C164.504 118.936 164.677 119.018 164.805 119.164C164.933 119.31 165.004 119.508 165.004 119.714C165.004 119.92 164.933 120.118 164.805 120.264C164.677 120.41 164.504 120.492 164.324 120.492Z" fill="#333333"/>
<path d="M164.324 125.567H156.915C156.735 125.567 156.562 125.485 156.434 125.339C156.306 125.193 156.234 124.995 156.234 124.788C156.234 124.582 156.306 124.384 156.434 124.238C156.562 124.092 156.735 124.01 156.915 124.01H164.324C164.504 124.01 164.677 124.092 164.805 124.238C164.933 124.384 165.004 124.582 165.004 124.788C165.004 124.995 164.933 125.193 164.805 125.339C164.677 125.485 164.504 125.567 164.324 125.567Z" fill="#333333"/>
<path d="M164.324 130.651H156.915C156.735 130.651 156.562 130.569 156.434 130.423C156.306 130.277 156.234 130.079 156.234 129.872C156.234 129.666 156.306 129.468 156.434 129.322C156.562 129.176 156.735 129.094 156.915 129.094H164.324C164.504 129.094 164.677 129.176 164.805 129.322C164.933 129.468 165.004 129.666 165.004 129.872C165.004 130.079 164.933 130.277 164.805 130.423C164.677 130.569 164.504 130.651 164.324 130.651Z" fill="#333333"/>
<path d="M164.324 135.733H156.915C156.735 135.733 156.562 135.651 156.434 135.505C156.306 135.359 156.234 135.161 156.234 134.954C156.234 134.748 156.306 134.55 156.434 134.404C156.562 134.258 156.735 134.176 156.915 134.176H164.324C164.504 134.176 164.677 134.258 164.805 134.404C164.933 134.55 165.004 134.748 165.004 134.954C165.004 135.161 164.933 135.359 164.805 135.505C164.677 135.651 164.504 135.733 164.324 135.733Z" fill="#333333"/>
<path d="M164.324 140.817H156.915C156.735 140.817 156.562 140.735 156.434 140.589C156.306 140.443 156.234 140.245 156.234 140.038C156.234 139.832 156.306 139.634 156.434 139.488C156.562 139.342 156.735 139.26 156.915 139.26H164.324C164.504 139.26 164.677 139.342 164.805 139.488C164.933 139.634 165.004 139.832 165.004 140.038C165.004 140.245 164.933 140.443 164.805 140.589C164.677 140.735 164.504 140.817 164.324 140.817Z" fill="#333333"/>
<path d="M164.324 145.891H156.915C156.735 145.891 156.562 145.809 156.434 145.663C156.306 145.517 156.234 145.319 156.234 145.112C156.234 144.906 156.306 144.708 156.434 144.562C156.562 144.416 156.735 144.334 156.915 144.334H164.324C164.504 144.334 164.677 144.416 164.805 144.562C164.933 144.708 165.004 144.906 165.004 145.112C165.004 145.319 164.933 145.517 164.805 145.663C164.677 145.809 164.504 145.891 164.324 145.891Z" fill="#333333"/>
<path d="M164.324 150.975H156.915C156.735 150.975 156.562 150.893 156.434 150.747C156.306 150.601 156.234 150.403 156.234 150.196C156.234 149.99 156.306 149.792 156.434 149.646C156.562 149.5 156.735 149.418 156.915 149.418H164.324C164.504 149.418 164.677 149.5 164.805 149.646C164.933 149.792 165.004 149.99 165.004 150.196C165.004 150.403 164.933 150.601 164.805 150.747C164.677 150.893 164.504 150.975 164.324 150.975Z" fill="#333333"/>
<path d="M164.324 156.059H156.915C156.735 156.059 156.562 155.977 156.434 155.831C156.306 155.685 156.234 155.487 156.234 155.28C156.234 155.074 156.306 154.876 156.434 154.73C156.562 154.584 156.735 154.502 156.915 154.502H164.324C164.504 154.502 164.677 154.584 164.805 154.73C164.933 154.876 165.004 155.074 165.004 155.28C165.004 155.487 164.933 155.685 164.805 155.831C164.677 155.977 164.504 156.059 164.324 156.059Z" fill="#333333"/>
<path d="M164.324 161.141H156.915C156.735 161.141 156.562 161.059 156.434 160.913C156.306 160.767 156.234 160.569 156.234 160.362C156.234 160.156 156.306 159.958 156.434 159.812C156.562 159.666 156.735 159.584 156.915 159.584H164.324C164.504 159.584 164.677 159.666 164.805 159.812C164.933 159.958 165.004 160.156 165.004 160.362C165.004 160.569 164.933 160.767 164.805 160.913C164.677 161.059 164.504 161.141 164.324 161.141Z" fill="#333333"/>
</g>
<path d="M185.731 120.492H170.54C170.36 120.492 170.187 120.41 170.059 120.264C169.931 120.118 169.859 119.92 169.859 119.714C169.859 119.508 169.931 119.31 170.059 119.164C170.187 119.018 170.36 118.936 170.54 118.936H185.731C185.912 118.936 186.085 119.018 186.213 119.164C186.34 119.31 186.412 119.508 186.412 119.714C186.412 119.92 186.34 120.118 186.213 120.264C186.085 120.41 185.912 120.492 185.731 120.492Z" fill="#004324"/>
<path d="M229.377 120.492H189.782C189.602 120.492 189.429 120.41 189.301 120.264C189.173 120.118 189.102 119.92 189.102 119.714C189.102 119.508 189.173 119.31 189.301 119.164C189.429 119.018 189.602 118.936 189.782 118.936H229.377C229.558 118.936 229.731 119.018 229.859 119.164C229.986 119.31 230.058 119.508 230.058 119.714C230.058 119.92 229.986 120.118 229.859 120.264C229.731 120.41 229.558 120.492 229.377 120.492Z" fill="#263238"/>
<g opacity="0.2">
<path d="M247.443 120.492H235.97C235.789 120.492 235.616 120.41 235.489 120.264C235.361 120.118 235.289 119.92 235.289 119.714C235.289 119.508 235.361 119.31 235.489 119.164C235.616 119.018 235.789 118.936 235.97 118.936H247.443C247.624 118.936 247.797 119.018 247.925 119.164C248.052 119.31 248.124 119.508 248.124 119.714C248.124 119.92 248.052 120.118 247.925 120.264C247.797 120.41 247.624 120.492 247.443 120.492Z" fill="#263238"/>
</g>
<g opacity="0.2">
<path d="M212.27 125.565H172.587C172.407 125.565 172.233 125.483 172.106 125.337C171.978 125.191 171.906 124.993 171.906 124.786C171.906 124.58 171.978 124.382 172.106 124.236C172.233 124.09 172.407 124.008 172.587 124.008H212.27C212.451 124.008 212.624 124.09 212.752 124.236C212.88 124.382 212.951 124.58 212.951 124.786C212.951 124.993 212.88 125.191 212.752 125.337C212.624 125.483 212.451 125.565 212.27 125.565Z" fill="#263238"/>
</g>
<path d="M252.89 125.565H215.931C215.75 125.565 215.577 125.483 215.449 125.337C215.322 125.191 215.25 124.993 215.25 124.786C215.25 124.58 215.322 124.382 215.449 124.236C215.577 124.09 215.75 124.008 215.931 124.008H252.918C253.098 124.008 253.272 124.09 253.399 124.236C253.527 124.382 253.599 124.58 253.599 124.786C253.599 124.993 253.527 125.191 253.399 125.337C253.272 125.483 253.098 125.565 252.918 125.565H252.89Z" fill="#004324"/>
<path d="M196.106 130.651H172.587C172.407 130.651 172.233 130.569 172.106 130.423C171.978 130.277 171.906 130.079 171.906 129.872C171.906 129.666 171.978 129.468 172.106 129.322C172.233 129.176 172.407 129.094 172.587 129.094H196.106C196.286 129.094 196.459 129.176 196.587 129.322C196.715 129.468 196.787 129.666 196.787 129.872C196.787 130.079 196.715 130.277 196.587 130.423C196.459 130.569 196.286 130.651 196.106 130.651Z" fill="#263238"/>
<path d="M224.105 130.651H200.954C200.774 130.651 200.601 130.569 200.473 130.423C200.345 130.277 200.273 130.079 200.273 129.872C200.273 129.666 200.345 129.468 200.473 129.322C200.601 129.176 200.774 129.094 200.954 129.094H224.105C224.286 129.094 224.459 129.176 224.587 129.322C224.714 129.468 224.786 129.666 224.786 129.872C224.786 130.079 224.714 130.277 224.587 130.423C224.459 130.569 224.286 130.651 224.105 130.651Z" fill="#004324"/>
<path d="M252.887 130.651H227.884C227.703 130.651 227.53 130.569 227.403 130.423C227.275 130.277 227.203 130.079 227.203 129.872C227.203 129.666 227.275 129.468 227.403 129.322C227.53 129.176 227.703 129.094 227.884 129.094H252.887C253.067 129.094 253.241 129.176 253.368 129.322C253.496 129.468 253.568 129.666 253.568 129.872C253.568 130.079 253.496 130.277 253.368 130.423C253.241 130.569 253.067 130.651 252.887 130.651Z" fill="#263238"/>
<path d="M198.28 135.731H184.165C183.985 135.731 183.811 135.649 183.684 135.503C183.556 135.357 183.484 135.159 183.484 134.952C183.484 134.746 183.556 134.548 183.684 134.402C183.811 134.256 183.985 134.174 184.165 134.174H198.28C198.461 134.174 198.634 134.256 198.762 134.402C198.89 134.548 198.961 134.746 198.961 134.952C198.961 135.159 198.89 135.357 198.762 135.503C198.634 135.649 198.461 135.731 198.28 135.731Z" fill="#263238"/>
<path d="M218.27 135.731H202.861C202.68 135.731 202.507 135.649 202.379 135.503C202.251 135.357 202.18 135.159 202.18 134.952C202.18 134.746 202.251 134.548 202.379 134.402C202.507 134.256 202.68 134.174 202.861 134.174H218.27C218.45 134.174 218.623 134.256 218.751 134.402C218.879 134.548 218.95 134.746 218.95 134.952C218.95 135.159 218.879 135.357 218.751 135.503C218.623 135.649 218.45 135.731 218.27 135.731Z" fill="#263238"/>
<g opacity="0.2">
<path d="M246.756 135.731H221.767C221.586 135.731 221.413 135.649 221.285 135.503C221.158 135.357 221.086 135.159 221.086 134.952C221.086 134.746 221.158 134.548 221.285 134.402C221.413 134.256 221.586 134.174 221.767 134.174H246.756C246.937 134.174 247.11 134.256 247.238 134.402C247.365 134.548 247.437 134.746 247.437 134.952C247.437 135.159 247.365 135.357 247.238 135.503C247.11 135.649 246.937 135.731 246.756 135.731Z" fill="#263238"/>
</g>
<g opacity="0.2">
<path d="M191.578 140.815H172.587C172.407 140.815 172.233 140.733 172.106 140.587C171.978 140.441 171.906 140.243 171.906 140.036C171.906 139.83 171.978 139.632 172.106 139.486C172.233 139.34 172.407 139.258 172.587 139.258H191.578C191.758 139.258 191.931 139.34 192.059 139.486C192.187 139.632 192.259 139.83 192.259 140.036C192.259 140.243 192.187 140.441 192.059 140.587C191.931 140.733 191.758 140.815 191.578 140.815Z" fill="#263238"/>
</g>
<path d="M193.954 145.889H172.587C172.407 145.889 172.233 145.807 172.106 145.661C171.978 145.515 171.906 145.317 171.906 145.11C171.906 144.904 171.978 144.706 172.106 144.56C172.233 144.414 172.407 144.332 172.587 144.332H193.954C194.135 144.332 194.308 144.414 194.435 144.56C194.563 144.706 194.635 144.904 194.635 145.11C194.635 145.317 194.563 145.515 194.435 145.661C194.308 145.807 194.135 145.889 193.954 145.889Z" fill="#004324"/>
<path d="M229.64 145.889H197.447C197.266 145.889 197.093 145.807 196.965 145.661C196.837 145.515 196.766 145.317 196.766 145.11C196.766 144.904 196.837 144.706 196.965 144.56C197.093 144.414 197.266 144.332 197.447 144.332H229.64C229.82 144.332 229.994 144.414 230.121 144.56C230.249 144.706 230.321 144.904 230.321 145.11C230.321 145.317 230.249 145.515 230.121 145.661C229.994 145.807 229.82 145.889 229.64 145.889Z" fill="#263238"/>
<path d="M252.893 145.889H233.548C233.368 145.889 233.194 145.807 233.067 145.661C232.939 145.515 232.867 145.317 232.867 145.11C232.867 144.904 232.939 144.706 233.067 144.56C233.194 144.414 233.368 144.332 233.548 144.332H252.893C253.073 144.332 253.246 144.414 253.374 144.56C253.502 144.706 253.574 144.904 253.574 145.11C253.574 145.317 253.502 145.515 253.374 145.661C253.246 145.807 253.073 145.889 252.893 145.889Z" fill="#263238"/>
<g opacity="0.2">
<path d="M191.625 150.975H179.368C179.188 150.975 179.015 150.893 178.887 150.747C178.759 150.601 178.688 150.403 178.688 150.196C178.688 149.99 178.759 149.792 178.887 149.646C179.015 149.5 179.188 149.418 179.368 149.418H191.625C191.805 149.418 191.979 149.5 192.106 149.646C192.234 149.792 192.306 149.99 192.306 150.196C192.306 150.403 192.234 150.601 192.106 150.747C191.979 150.893 191.805 150.975 191.625 150.975Z" fill="#263238"/>
</g>
<g opacity="0.2">
<path d="M219.27 150.975H195.806C195.625 150.975 195.452 150.893 195.324 150.747C195.197 150.601 195.125 150.403 195.125 150.196C195.125 149.99 195.197 149.792 195.324 149.646C195.452 149.5 195.625 149.418 195.806 149.418H219.27C219.451 149.418 219.624 149.5 219.751 149.646C219.879 149.792 219.951 149.99 219.951 150.196C219.951 150.403 219.879 150.601 219.751 150.747C219.624 150.893 219.451 150.975 219.27 150.975Z" fill="#263238"/>
</g>
<path d="M246.757 150.973H223.845C223.664 150.973 223.491 150.891 223.363 150.745C223.236 150.599 223.164 150.401 223.164 150.194C223.164 149.988 223.236 149.79 223.363 149.644C223.491 149.498 223.664 149.416 223.845 149.416H246.757C246.938 149.416 247.111 149.498 247.239 149.644C247.367 149.79 247.438 149.988 247.438 150.194C247.438 150.401 247.367 150.599 247.239 150.745C247.111 150.891 246.938 150.973 246.757 150.973Z" fill="#263238"/>
<path d="M200.626 156.057H186.204C186.024 156.057 185.851 155.975 185.723 155.829C185.595 155.683 185.523 155.485 185.523 155.278C185.523 155.072 185.595 154.874 185.723 154.728C185.851 154.582 186.024 154.5 186.204 154.5H200.626C200.807 154.5 200.98 154.582 201.107 154.728C201.235 154.874 201.307 155.072 201.307 155.278C201.307 155.485 201.235 155.683 201.107 155.829C200.98 155.975 200.807 156.057 200.626 156.057Z" fill="#263238"/>
<g opacity="0.2">
<path d="M217.321 156.057H203.587C203.407 156.057 203.233 155.975 203.106 155.829C202.978 155.683 202.906 155.485 202.906 155.278C202.906 155.072 202.978 154.874 203.106 154.728C203.233 154.582 203.407 154.5 203.587 154.5H217.321C217.502 154.5 217.675 154.582 217.803 154.728C217.93 154.874 218.002 155.072 218.002 155.278C218.002 155.485 217.93 155.683 217.803 155.829C217.675 155.975 217.502 156.057 217.321 156.057Z" fill="#263238"/>
</g>
<path d="M246.759 156.057H221.634C221.453 156.057 221.28 155.975 221.153 155.829C221.025 155.683 220.953 155.485 220.953 155.278C220.953 155.072 221.025 154.874 221.153 154.728C221.28 154.582 221.453 154.5 221.634 154.5H246.759C246.94 154.5 247.113 154.582 247.241 154.728C247.369 154.874 247.44 155.072 247.44 155.278C247.44 155.485 247.369 155.683 247.241 155.829C247.113 155.975 246.94 156.057 246.759 156.057Z" fill="#004324"/>
<g opacity="0.2">
<path d="M203.833 161.141H186.204C186.024 161.141 185.851 161.059 185.723 160.913C185.595 160.767 185.523 160.569 185.523 160.362C185.523 160.156 185.595 159.958 185.723 159.812C185.851 159.666 186.024 159.584 186.204 159.584H203.833C204.014 159.584 204.187 159.666 204.314 159.812C204.442 159.958 204.514 160.156 204.514 160.362C204.514 160.569 204.442 160.767 204.314 160.913C204.187 161.059 204.014 161.141 203.833 161.141Z" fill="#263238"/>
</g>
<path opacity="0.4" d="M256.109 101.343C256.109 101.608 256.178 101.867 256.307 102.087C256.436 102.308 256.62 102.479 256.834 102.58C257.048 102.682 257.284 102.708 257.512 102.655C257.739 102.603 257.948 102.475 258.111 102.287C258.275 102.099 258.386 101.859 258.43 101.599C258.474 101.339 258.45 101.07 258.361 100.825C258.271 100.581 258.12 100.372 257.926 100.226C257.733 100.08 257.506 100.002 257.274 100.004C257.12 100.004 256.968 100.039 256.827 100.106C256.685 100.173 256.556 100.272 256.448 100.397C256.34 100.521 256.254 100.669 256.196 100.831C256.138 100.993 256.108 101.167 256.109 101.343Z" fill="white"/>
<path opacity="0.4" d="M253.211 102.672C253.854 102.672 254.376 102.076 254.376 101.341C254.376 100.606 253.854 100.01 253.211 100.01C252.568 100.01 252.047 100.606 252.047 101.341C252.047 102.076 252.568 102.672 253.211 102.672Z" fill="white"/>
<path opacity="0.4" d="M249.125 102.672C249.768 102.672 250.29 102.076 250.29 101.341C250.29 100.606 249.768 100.01 249.125 100.01C248.482 100.01 247.961 100.606 247.961 101.341C247.961 102.076 248.482 102.672 249.125 102.672Z" fill="white"/>
<path d="M77.8942 102.797H58.3385C57.5475 102.796 56.764 102.973 56.033 103.318C55.3019 103.664 54.6375 104.17 54.0779 104.81C53.5182 105.449 53.0743 106.208 52.7713 107.043C52.4684 107.878 52.3125 108.774 52.3125 109.678V129.138C52.3116 130.042 52.4666 130.938 52.7687 131.774C53.0708 132.609 53.5141 133.369 54.0731 134.009C54.6321 134.648 55.296 135.156 56.0267 135.502C56.7574 135.848 57.5407 136.027 58.3317 136.027H72.2018L76.2872 142.168V136.027H77.8873C79.4855 136.027 81.0183 135.301 82.1484 134.009C83.2785 132.717 83.9134 130.965 83.9134 129.138V109.678C83.9134 107.853 83.2792 106.103 82.1504 104.812C81.0216 103.522 79.4905 102.797 77.8942 102.797Z" fill="#004324"/>
<path opacity="0.7" d="M77.8942 102.797H58.3385C57.5475 102.796 56.764 102.973 56.033 103.318C55.3019 103.664 54.6375 104.17 54.0779 104.81C53.5182 105.449 53.0743 106.208 52.7713 107.043C52.4684 107.878 52.3125 108.774 52.3125 109.678V129.138C52.3116 130.042 52.4666 130.938 52.7687 131.774C53.0708 132.609 53.5141 133.369 54.0731 134.009C54.6321 134.648 55.296 135.156 56.0267 135.502C56.7574 135.848 57.5407 136.027 58.3317 136.027H72.2018L76.2872 142.168V136.027H77.8873C79.4855 136.027 81.0183 135.301 82.1484 134.009C83.2785 132.717 83.9134 130.965 83.9134 129.138V109.678C83.9134 107.853 83.2792 106.103 82.1504 104.812C81.0216 103.522 79.4905 102.797 77.8942 102.797Z" fill="white"/>
<path d="M67.0905 124.265C66.9613 124.264 66.8336 124.232 66.7162 124.17C66.5987 124.108 66.4942 124.019 66.4096 123.907L62.6034 118.816C62.5274 118.714 62.4697 118.596 62.4337 118.468C62.3977 118.34 62.3841 118.206 62.3935 118.072C62.403 117.938 62.4355 117.808 62.489 117.689C62.5425 117.569 62.6161 117.463 62.7055 117.376C62.7949 117.289 62.8984 117.223 63.0101 117.182C63.1218 117.141 63.2395 117.125 63.3565 117.136C63.4735 117.147 63.5874 117.184 63.6919 117.245C63.7963 117.306 63.8892 117.391 63.9652 117.493L67.0905 121.712L72.2586 114.753C72.4139 114.557 72.6296 114.438 72.8603 114.42C73.091 114.403 73.3186 114.488 73.4952 114.659C73.6718 114.829 73.7836 115.072 73.8069 115.335C73.8303 115.598 73.7634 115.861 73.6204 116.068L67.7714 123.922C67.6862 124.032 67.5812 124.12 67.4637 124.179C67.3462 124.238 67.2189 124.267 67.0905 124.265Z" fill="white"/>
<path d="M74.9802 127.167C78.7721 122.832 78.7721 115.804 74.9802 111.469C71.1884 107.135 65.0405 107.135 61.2486 111.47C57.4567 115.804 57.4567 122.832 61.2486 127.167C65.0405 131.502 71.1884 131.502 74.9802 127.167Z" fill="#004324"/>
<path d="M140.173 240.618L154.792 239.801L153.369 254.333C153.369 254.333 143.223 256.544 138.695 248.293L140.173 240.618Z" fill="#EBB376"/>
<path d="M164.214 244.868L160.884 255.408L153.367 254.333L154.79 239.801L164.214 244.868Z" fill="#EBB376"/>
<path d="M126.139 264.205C131.706 260.881 136.78 256.576 141.174 251.447L140.173 240.619C126.357 242.954 118.384 246.294 118.384 246.294C118.384 246.294 123.504 225.316 118.82 217.672L105.957 220.334C105.957 220.334 92.2915 252.809 101.484 264.205H126.139Z" fill="#004324"/>
<path opacity="0.7" d="M126.108 264.206C131.678 260.884 136.756 256.582 141.156 251.456L140.162 240.613C126.789 242.855 118.884 246.062 118.373 246.272C118.543 245.494 123.385 225.17 118.795 217.666L105.933 220.328C103.288 226.849 101.189 233.641 99.6618 240.613C97.8233 249.479 97.2854 259.03 101.466 264.206H126.108Z" fill="white"/>
<path opacity="0.2" d="M115.541 264.204C120.082 231.309 116.058 222.949 116.058 222.949L99.7164 240.596C97.878 249.461 97.3401 259.012 101.521 264.189L115.541 264.204Z" fill="#333333"/>
<path d="M112.704 264.205C115.768 247.578 119.206 221.549 118.832 217.672C118.287 212.037 91.4731 187.891 68.1998 205.467C63.4334 209.055 61.0026 247.765 60.1719 264.205H112.704Z" fill="#004324"/>
<path opacity="0.7" d="M112.704 264.206C115.768 247.579 119.206 221.542 118.832 217.665C118.287 212.038 91.4663 187.892 68.193 205.476C66.4703 206.791 65.054 212.73 63.8828 220.577C62.3303 231.256 61.2545 245.439 60.6145 256.134C60.4374 259.162 60.2876 261.902 60.1719 264.206H112.704Z" fill="white"/>
<path d="M101.213 134.032C93.1446 130.304 74.12 143.684 72.4518 167.542C70.7836 191.4 81.3649 184.792 81.3649 184.792C81.3649 184.792 83.251 193.891 90.9589 191.081C90.9589 191.081 97.3253 199.324 103.249 195.969C103.249 195.969 110.623 204.75 114.58 200.118C114.58 200.118 118.883 205.731 122.812 201.481C126.74 197.23 137.969 153.843 120.354 143.809C102.739 133.775 101.213 134.032 101.213 134.032Z" fill="#263238"/>
<path d="M101.232 231.681L100.456 231.604C101.354 220.114 99.1414 215.032 99.0938 214.985L99.7747 214.572C99.904 214.751 102.151 219.865 101.232 231.681Z" fill="#263238"/>
<path d="M104.876 231.782C99.5308 217.389 105.557 214.035 105.802 213.879L106.122 214.657C106.067 214.657 100.566 217.841 105.591 231.385L104.876 231.782Z" fill="#263238"/>
<path d="M99.6612 217.312C99.6612 217.312 89.3455 207.971 73.3306 202.709L68.1897 205.464C68.1897 205.464 59.5694 193.267 73.9366 189.274C88.3037 185.28 107.846 196.279 112.748 205.698C117.651 215.116 104.223 218.152 104.223 218.152C104.223 218.152 102.991 216.237 99.6612 217.312Z" fill="#004324"/>
<path opacity="0.6" d="M99.6612 217.312C99.6612 217.312 89.3455 207.971 73.3306 202.709L68.1897 205.464C68.1897 205.464 59.5694 193.267 73.9366 189.274C88.3037 185.28 107.846 196.279 112.748 205.698C117.651 215.116 104.223 218.152 104.223 218.152C104.223 218.152 102.991 216.237 99.6612 217.312Z" fill="white"/>
<path d="M105.885 231.61C105.885 231.764 105.845 231.915 105.77 232.043C105.696 232.171 105.589 232.271 105.465 232.33C105.341 232.388 105.204 232.404 105.072 232.374C104.939 232.344 104.818 232.27 104.723 232.161C104.628 232.052 104.563 231.913 104.537 231.762C104.51 231.611 104.524 231.455 104.575 231.313C104.627 231.17 104.714 231.049 104.826 230.963C104.938 230.878 105.07 230.832 105.204 230.832C105.385 230.832 105.558 230.914 105.686 231.06C105.814 231.206 105.885 231.404 105.885 231.61Z" fill="white"/>
<path d="M101.463 231.61C101.463 231.764 101.423 231.915 101.349 232.043C101.274 232.171 101.167 232.271 101.043 232.33C100.919 232.388 100.782 232.404 100.65 232.374C100.518 232.344 100.396 232.27 100.301 232.161C100.206 232.052 100.141 231.913 100.115 231.762C100.088 231.611 100.102 231.455 100.153 231.313C100.205 231.17 100.292 231.049 100.404 230.963C100.516 230.878 100.648 230.832 100.782 230.832C100.963 230.832 101.136 230.914 101.264 231.06C101.392 231.206 101.463 231.404 101.463 231.61Z" fill="white"/>
<path d="M94.1703 173.305C93.5439 181.657 91.3037 196.524 85.3594 199.77C85.3594 199.77 92.005 201.327 102.382 216.358C108.285 211.625 106.052 208.395 106.052 208.395C99.1477 203.219 100.939 196.836 103.73 191.27L94.1703 173.305Z" fill="#EBB376"/>
<path opacity="0.2" d="M98.058 180.627L103.716 191.291C103.041 192.578 102.469 193.933 102.007 195.339C99.2837 193.673 96.3013 188.395 96.8665 184.784C97.0426 183.328 97.4462 181.92 98.058 180.627Z" fill="#333333"/>
<path d="M93.3744 155.643C91.4746 168.767 90.4261 174.262 94.6817 182.708C101.075 195.419 115.245 196.018 120.454 184C125.139 173.18 127.461 153.533 117.683 144.862C108.034 136.315 95.2605 142.511 93.3744 155.643Z" fill="#EBB376"/>
<path d="M116.881 137.551C124.323 142.268 131.411 157.011 120.823 153.329C119.223 156.87 113.524 153.625 110.208 149.374C109.65 152.325 103.549 155.283 99.0547 150.713C101.227 154.294 97.5294 163.331 93.6823 161.774C89.8352 160.218 81.2013 158.17 88.8479 144.237C96.4945 130.304 108.935 132.499 116.881 137.551Z" fill="#263238"/>
<path d="M114.188 168.023C114.188 168.023 114.869 173.231 116.162 176.057C114.712 177.014 112.758 175.737 112.758 175.737L114.188 168.023Z" fill="#D58745"/>
<path d="M106.756 178.071C107.239 178.341 107.743 178.56 108.261 178.725C108.296 178.737 108.332 178.74 108.368 178.734C108.404 178.728 108.439 178.714 108.47 178.692C108.501 178.67 108.527 178.641 108.547 178.606C108.568 178.572 108.581 178.533 108.588 178.492C108.606 178.406 108.594 178.315 108.555 178.24C108.515 178.164 108.451 178.109 108.376 178.087C107.205 177.712 106.122 177.04 105.207 176.123C104.293 175.206 103.57 174.065 103.093 172.786C103.083 172.745 103.065 172.706 103.042 172.672C103.018 172.639 102.989 172.611 102.956 172.591C102.923 172.571 102.887 172.558 102.849 172.554C102.812 172.55 102.774 172.555 102.739 172.568C102.67 172.601 102.615 172.663 102.585 172.742C102.556 172.82 102.555 172.909 102.582 172.988C103.379 175.212 104.865 177.021 106.756 178.071Z" fill="#263238"/>
<path d="M87.5789 165.074C88.2208 167.802 89.7831 170.129 91.9231 171.542C94.6944 173.278 96.6895 170.305 96.4852 166.607C96.2741 163.268 94.5718 158.349 91.535 158.154C88.4982 157.959 86.755 161.626 87.5789 165.074Z" fill="#EBB376"/>
<path d="M105.967 155.998C106.035 156.034 106.109 156.053 106.185 156.053C106.26 156.053 106.334 156.034 106.403 155.998C107.007 155.615 107.685 155.407 108.376 155.394C109.067 155.38 109.75 155.561 110.366 155.92C110.427 155.965 110.495 155.995 110.567 156.007C110.639 156.02 110.712 156.015 110.782 155.993C110.852 155.971 110.917 155.932 110.973 155.879C111.029 155.827 111.075 155.761 111.108 155.687C111.175 155.53 111.189 155.35 111.148 155.182C111.106 155.014 111.012 154.87 110.883 154.776C110.115 154.295 109.253 154.043 108.377 154.043C107.501 154.043 106.64 154.295 105.872 154.776C105.743 154.864 105.648 155.005 105.608 155.17C105.567 155.335 105.584 155.512 105.654 155.663C105.72 155.814 105.831 155.933 105.967 155.998Z" fill="#263238"/>
<path d="M124.271 161.12C124.332 161.16 124.4 161.185 124.471 161.193C124.541 161.201 124.612 161.192 124.679 161.167C124.75 161.14 124.815 161.097 124.872 161.04C124.928 160.984 124.973 160.915 125.005 160.838C125.038 160.761 125.056 160.678 125.06 160.592C125.064 160.507 125.052 160.422 125.027 160.342C124.778 159.33 124.329 158.398 123.713 157.618C123.098 156.837 122.333 156.23 121.479 155.843C121.409 155.814 121.334 155.803 121.26 155.811C121.186 155.818 121.114 155.844 121.05 155.886C120.985 155.928 120.929 155.986 120.886 156.055C120.842 156.124 120.812 156.203 120.798 156.286C120.763 156.455 120.783 156.633 120.856 156.786C120.929 156.938 121.049 157.054 121.193 157.111C121.866 157.43 122.467 157.92 122.948 158.545C123.43 159.169 123.78 159.912 123.971 160.715C123.995 160.802 124.034 160.883 124.085 160.952C124.137 161.022 124.2 161.079 124.271 161.12Z" fill="#263238"/>
<path d="M109.638 164.585C109.304 165.628 108.542 166.259 107.936 166.002C107.33 165.745 107.112 164.702 107.445 163.667C107.779 162.632 108.542 161.993 109.141 162.25C109.74 162.507 109.965 163.55 109.638 164.585Z" fill="#263238"/>
<path d="M108.875 162.195L111.136 162.141C111.136 162.141 109.542 163.62 108.875 162.195Z" fill="#263238"/>
<path d="M121.072 168.735C120.739 169.77 119.976 170.401 119.377 170.151C118.778 169.902 118.546 168.844 118.88 167.816C119.213 166.789 119.976 166.151 120.582 166.4C121.188 166.649 121.406 167.692 121.072 168.735Z" fill="#263238"/>
<path d="M120.312 166.336L122.566 166.281C122.566 166.281 120.973 167.768 120.312 166.336Z" fill="#263238"/>
<path d="M108.567 171.938C107.863 171.941 107.167 171.774 106.524 171.448C105.843 171.091 105.239 170.569 104.752 169.919C104.265 169.268 103.908 168.505 103.705 167.681C103.266 165.904 103.386 164.008 104.044 162.323C104.703 160.637 105.857 159.269 107.307 158.457C107.979 158.073 108.716 157.864 109.467 157.845C110.218 157.826 110.963 157.998 111.649 158.348C112.334 158.698 112.944 159.217 113.433 159.869C113.922 160.52 114.278 161.287 114.477 162.115C114.93 163.89 114.806 165.792 114.13 167.47C113.491 169.177 112.332 170.56 110.868 171.362C110.147 171.744 109.361 171.941 108.567 171.938ZM109.636 158.745C108.958 158.765 108.292 158.951 107.682 159.289C106.403 160.013 105.385 161.223 104.803 162.712C104.221 164.201 104.112 165.876 104.495 167.447C104.659 168.154 104.959 168.811 105.374 169.368C105.788 169.926 106.307 170.37 106.891 170.668C107.476 170.967 108.111 171.112 108.751 171.094C109.391 171.075 110.019 170.893 110.589 170.561C111.878 169.855 112.901 168.642 113.469 167.143C114.068 165.657 114.177 163.974 113.776 162.403C113.605 161.7 113.302 161.048 112.888 160.493C112.474 159.938 111.959 159.492 111.379 159.188C110.834 158.895 110.238 158.744 109.636 158.745Z" fill="#263238"/>
<path d="M119.891 175.911C119.187 175.918 118.49 175.75 117.848 175.42C117.167 175.062 116.562 174.54 116.074 173.89C115.586 173.24 115.227 172.477 115.022 171.653C114.586 169.875 114.709 167.98 115.368 166.295C116.027 164.61 117.182 163.242 118.631 162.429C119.302 162.043 120.039 161.833 120.79 161.814C121.541 161.795 122.286 161.966 122.971 162.316C123.657 162.666 124.266 163.186 124.754 163.838C125.242 164.491 125.597 165.259 125.794 166.087C126.253 167.86 126.132 169.764 125.454 171.443C124.994 172.715 124.226 173.811 123.241 174.602C122.256 175.394 121.093 175.848 119.891 175.911ZM120.973 162.678C120.286 162.683 119.607 162.858 118.985 163.192C117.697 163.902 116.675 165.117 116.105 166.617C115.502 168.099 115.393 169.782 115.798 171.349C115.969 172.053 116.272 172.706 116.686 173.263C117.1 173.819 117.615 174.266 118.195 174.572C120.578 175.794 123.533 174.206 124.773 171.046C125.368 169.558 125.477 167.876 125.079 166.305C124.907 165.603 124.604 164.952 124.19 164.397C123.776 163.842 123.262 163.396 122.682 163.09C122.141 162.833 121.559 162.705 120.973 162.717V162.678Z" fill="#263238"/>
<path d="M115.026 167.792C115.011 167.737 114.985 167.685 114.951 167.642C114.917 167.599 114.875 167.565 114.828 167.543C114.529 167.483 114.221 167.535 113.95 167.691L113.609 166.912C114.072 166.642 114.606 166.578 115.107 166.733C115.264 166.797 115.407 166.9 115.525 167.034C115.643 167.169 115.733 167.332 115.788 167.512L115.026 167.792Z" fill="#263238"/>
<path d="M96.4047 159.463L96.1719 160.314L105.389 163.607L105.621 162.755L96.4047 159.463Z" fill="#263238"/>
<path opacity="0.2" d="M94.2461 241.381C94.2461 241.381 76.3315 257.073 60.6094 256.17C61.2494 245.475 62.3253 231.262 63.8777 220.613C65.4847 218.589 66.5401 217.359 66.5401 217.359L76.0728 225.509L73.7509 228.841C73.7509 228.841 88.1793 228 93.2044 228.841L94.2461 241.381Z" fill="#333333"/>
<path d="M96.09 228.802L110.43 225.455L110.941 240.073C110.941 240.073 101.21 244.012 95.6406 236.641L96.09 228.802Z" fill="#EBB376"/>
<path d="M120.412 228.847L118.519 239.838L110.94 240.079L110.43 225.461L120.412 228.847Z" fill="#EBB376"/>
<path d="M96.1028 228.803L96.8041 240.082L93.2362 241.911L91.7109 228.803H96.1028Z" fill="#004324"/>
<path opacity="0.6" d="M96.1028 228.803L96.8041 240.082L93.2362 241.911L91.7109 228.803H96.1028Z" fill="white"/>
<path d="M73.3239 202.709C69.4761 203.486 65.9917 205.79 63.4848 209.216C59.1611 215.023 43.9224 232.273 47.3065 246.354C50.6906 260.435 83.2788 249.958 93.2336 241.909L91.7084 228.801L69.1364 230.692L76.0952 225.454C80.8684 210.275 73.3239 202.709 73.3239 202.709Z" fill="#004324"/>
<path opacity="0.7" d="M73.3239 202.709C69.4761 203.486 65.9917 205.79 63.4848 209.216C59.1611 215.023 43.9224 232.273 47.3065 246.354C50.6906 260.435 83.2788 249.958 93.2336 241.909L91.7084 228.801L69.1364 230.692L76.0952 225.454C80.8684 210.275 73.3239 202.709 73.3239 202.709Z" fill="white"/>
<path d="M138.695 240.868L142.801 240.082V252.661L139.546 253.268L138.695 240.868Z" fill="#004324"/>
<path opacity="0.6" d="M138.695 240.868L142.801 240.082V252.661L139.546 253.268L138.695 240.868Z" fill="white"/>
<path d="M130.394 252.536C130.383 251.847 130.412 251.158 130.483 250.474L130.606 249.438L129.727 250.03L129.203 250.388C129.03 250.477 128.853 250.552 128.672 250.614C128.362 250.726 128.029 250.726 127.718 250.614C127.419 250.487 127.155 250.269 126.956 249.983C126.726 249.667 126.544 249.31 126.418 248.925L125.649 246.473L125.104 249.073C125.049 249.329 125.015 249.594 124.974 249.851C124.934 250.108 124.838 250.334 124.777 250.575C124.647 250.963 124.428 251.304 124.144 251.563C123.826 251.75 123.457 251.786 123.116 251.665C122.686 251.536 122.277 251.331 121.904 251.057L120.719 250.209L121.195 251.587C121.402 252.172 121.566 252.776 121.686 253.393C121.745 253.7 121.782 254.012 121.795 254.327C121.825 254.647 121.762 254.969 121.618 255.245C121.857 255.026 122.02 254.717 122.081 254.373C122.158 254.038 122.2 253.693 122.203 253.346C122.217 253.074 122.217 252.801 122.203 252.529C122.401 252.657 122.606 252.771 122.816 252.871C123.125 253.016 123.457 253.086 123.791 253.076C124.125 253.067 124.454 252.979 124.757 252.817C125.332 252.447 125.781 251.865 126.03 251.166V251.065C126.398 251.545 126.892 251.876 127.438 252.009C127.984 252.142 128.552 252.07 129.06 251.805C129.26 251.701 129.453 251.581 129.639 251.447C129.639 251.447 129.639 251.501 129.639 251.532C129.687 251.899 129.753 252.263 129.836 252.622C129.919 252.984 130.033 253.336 130.177 253.673C130.313 254.012 130.515 254.31 130.769 254.545C130.616 254.24 130.517 253.904 130.476 253.556C130.429 253.219 130.402 252.878 130.394 252.536Z" fill="#004324"/>
<path d="M154.755 234.974C154.224 235.033 153.689 234.966 153.182 234.779C152.659 234.602 152.162 234.34 151.704 234.001C151.27 233.632 150.899 233.176 150.608 232.654C150.301 232.136 150.056 231.573 149.88 230.981L149.43 229.424L148.668 230.802C148.342 231.38 147.947 231.903 147.496 232.358C147.13 232.773 146.648 233.026 146.135 233.075H145.971L145.767 233.028C145.624 233.028 145.488 232.95 145.345 232.911C145.06 232.804 144.785 232.669 144.521 232.506C143.988 232.165 143.496 231.747 143.057 231.261L141.872 229.961L142.117 231.743C142.254 232.695 142.307 233.66 142.274 234.624C142.261 235.077 142.18 235.524 142.036 235.947C141.971 236.132 141.854 236.286 141.703 236.385C141.553 236.484 141.377 236.522 141.205 236.492H140.898L140.994 236.78C141.193 237.366 141.398 237.95 141.607 238.531C141.545 238.01 141.47 237.488 141.389 236.974H141.518C141.654 236.963 141.788 236.937 141.92 236.896C142.045 236.823 142.165 236.739 142.281 236.647C142.369 236.538 142.465 236.422 142.546 236.305C142.808 235.831 142.981 235.301 143.057 234.748C143.143 234.234 143.193 233.714 143.207 233.191C143.424 233.397 143.652 233.59 143.888 233.767C144.207 233.992 144.545 234.182 144.895 234.336C145.27 234.513 145.668 234.616 146.073 234.639C146.916 234.625 147.725 234.26 148.348 233.612C148.615 233.355 148.863 233.074 149.09 232.771C149.223 233.039 149.369 233.299 149.526 233.549C149.933 234.192 150.441 234.744 151.024 235.176C151.605 235.58 152.243 235.864 152.91 236.017C153.338 236.112 153.774 236.149 154.21 236.126C154.156 236.282 154.094 236.437 154.047 236.601C153.927 237.05 153.834 237.507 153.768 237.971C153.695 238.435 153.677 238.909 153.713 239.38C153.734 239.848 153.858 240.304 154.074 240.703C153.957 240.278 153.927 239.828 153.985 239.387C154.037 238.95 154.126 238.52 154.251 238.103C154.512 237.289 154.843 236.507 155.238 235.768L155.667 234.935L154.755 234.974Z" fill="#004324"/>
<path d="M290.977 280.982L52.183 280.982C51.3811 280.982 50.6122 280.618 50.0452 279.97C49.4782 279.322 49.1597 278.443 49.1597 277.526V269.12L294 269.12V277.526C294 278.443 293.681 279.322 293.115 279.97C292.548 280.618 291.779 280.982 290.977 280.982Z" fill="#004324"/>
<path opacity="0.2" d="M49.1529 275.041L294 275.041V269.11L49.1529 269.11V275.041Z" fill="#333333"/>
<path d="M44.0295 270.659H299.138C299.913 270.659 300.657 270.308 301.206 269.681C301.755 269.055 302.064 268.206 302.066 267.32C302.066 266.432 301.757 265.581 301.208 264.953C300.659 264.325 299.914 263.973 299.138 263.973H44.0295C43.2529 263.973 42.5082 264.325 41.9591 264.953C41.41 265.581 41.1016 266.432 41.1016 267.32C41.1034 268.206 41.4126 269.055 41.9615 269.681C42.5104 270.308 43.2541 270.659 44.0295 270.659Z" fill="#004324"/>
<path d="M281.851 223.125L274.402 261.749C274.266 262.368 273.955 262.918 273.518 263.315C273.081 263.711 272.542 263.933 271.984 263.944H231.294C231.04 263.937 230.792 263.862 230.568 263.727C230.344 263.591 230.151 263.398 230.003 263.163C229.856 262.928 229.757 262.656 229.717 262.371C229.676 262.085 229.694 261.792 229.768 261.515L237.204 223.187C237.356 222.603 237.68 222.097 238.12 221.752C238.56 221.408 239.09 221.247 239.621 221.296H280.312C281.401 221.327 282.089 221.895 281.851 223.125Z" fill="#263238"/>
<path opacity="0.4" d="M281.85 223.124L274.401 261.749C274.265 262.367 273.955 262.917 273.518 263.314C273.081 263.711 272.542 263.932 271.984 263.944H232.675C232.421 263.937 232.172 263.864 231.948 263.729C231.723 263.594 231.529 263.401 231.38 263.165C231.232 262.93 231.133 262.658 231.092 262.372C231.051 262.086 231.068 261.792 231.143 261.515L238.592 223.187C238.742 222.6 239.064 222.091 239.505 221.746C239.946 221.402 240.477 221.242 241.01 221.295H280.311C281.401 221.326 282.089 221.895 281.85 223.124Z" fill="white"/>
<path d="M275.358 262.752L282.766 224.33C283.012 223.069 282.324 222.501 281.228 222.501H241.926C241.394 222.451 240.863 222.612 240.423 222.956C239.983 223.301 239.66 223.808 239.508 224.393L231.984 263.258L275.358 262.752Z" fill="#004324"/>
<path opacity="0.4" d="M282.767 224.323L278.859 244.624L275.352 262.753L252.133 263.025L231.992 263.251L239.482 224.393C239.631 223.808 239.953 223.3 240.392 222.955C240.831 222.611 241.362 222.45 241.893 222.502H281.242C282.332 222.502 283.012 223.078 282.767 224.323Z" fill="white"/>
<path opacity="0.2" d="M278.86 244.625L275.354 262.754L252.135 263.026H232.852L236.004 246.446C236.105 245.933 236.356 245.473 236.714 245.143C237.073 244.812 237.518 244.63 237.979 244.625H278.86Z" fill="#333333"/>
<path d="M279.525 247.146C279.375 246.561 279.052 246.054 278.611 245.71C278.17 245.367 277.639 245.209 277.108 245.262H237.806C236.717 245.262 236.029 245.823 236.267 247.084L239.25 262.543H232.611C232.445 262.543 232.285 262.618 232.168 262.752C232.05 262.887 231.984 263.069 231.984 263.259C231.984 263.449 232.05 263.631 232.168 263.765C232.285 263.899 232.445 263.975 232.611 263.975H281.023C281.235 263.97 281.442 263.912 281.631 263.805C281.821 263.697 281.986 263.542 282.117 263.352C282.247 263.162 282.339 262.941 282.385 262.706C282.432 262.47 282.432 262.226 282.385 261.99L279.525 247.146Z" fill="#004324"/>
<path opacity="0.4" d="M279.525 247.146C279.375 246.561 279.052 246.054 278.611 245.71C278.17 245.367 277.639 245.209 277.108 245.262H237.806C236.717 245.262 236.029 245.823 236.267 247.084L239.25 262.543H232.611C232.445 262.543 232.285 262.618 232.168 262.752C232.05 262.887 231.984 263.069 231.984 263.259C231.984 263.449 232.05 263.631 232.168 263.765C232.285 263.899 232.445 263.975 232.611 263.975H281.023C281.235 263.97 281.442 263.912 281.631 263.805C281.821 263.697 281.986 263.542 282.117 263.352C282.247 263.162 282.339 262.941 282.385 262.706C282.432 262.47 282.432 262.226 282.385 261.99L279.525 247.146Z" fill="white"/>
<path d="M231.434 256.527H229.153L228.867 257.936H231.087L231.434 256.527Z" fill="#333333"/>
<path d="M217.021 264.153H210.451C210.399 264.154 210.349 264.143 210.301 264.121C210.254 264.099 210.21 264.067 210.174 264.025C210.138 263.984 210.109 263.934 210.09 263.88C210.071 263.826 210.062 263.768 210.063 263.709C210.063 263.591 210.103 263.479 210.176 263.395C210.249 263.312 210.348 263.265 210.451 263.265H217.021C218.1 263.268 219.164 262.992 220.137 262.46C221.109 261.928 221.964 261.152 222.639 260.191C223.386 259.123 224.335 258.263 225.413 257.672C226.492 257.082 227.673 256.778 228.869 256.781H230.027C230.129 256.783 230.227 256.831 230.299 256.913C230.372 256.996 230.413 257.108 230.415 257.225C230.415 257.343 230.374 257.456 230.301 257.539C230.228 257.622 230.13 257.669 230.027 257.669H228.883C227.805 257.666 226.74 257.942 225.767 258.474C224.795 259.006 223.94 259.782 223.265 260.743C222.516 261.812 221.566 262.674 220.484 263.264C219.403 263.855 218.22 264.158 217.021 264.153Z" fill="#333333"/>
<path d="M107.523 258.656V261.902C107.523 263.366 109.069 263.973 110.349 263.973H210.156C211.423 263.973 212.928 263.366 212.928 261.902V258.656H107.523Z" fill="#263238"/>
<path opacity="0.4" d="M107.523 258.656V261.902C107.523 263.366 109.069 263.973 110.349 263.973H210.156C211.423 263.973 212.928 263.366 212.928 261.902V258.656H107.523Z" fill="white"/>
<path opacity="0.2" d="M141.531 258.656V261.902C141.531 263.366 143.05 263.973 144.33 263.973H210.16C211.426 263.973 212.931 263.366 212.931 261.902V258.656H141.531Z" fill="#333333"/>
<path d="M229.627 196.913L217.745 258.523C217.532 259.514 217.039 260.395 216.342 261.032C215.645 261.668 214.783 262.023 213.891 262.042H148.981C147.258 262.042 146.141 260.197 146.543 258.15L158.411 197.007C158.813 194.998 160.529 193.994 162.272 193.994H227.176C228.919 194.002 230.015 194.905 229.627 196.913Z" fill="#263238"/>
<path opacity="0.4" d="M229.626 196.913L217.744 258.523C217.531 259.514 217.038 260.395 216.341 261.032C215.644 261.668 214.782 262.023 213.89 262.042H151.186C149.442 262.042 148.346 260.197 148.734 258.15L160.616 197.007C161.004 194.998 162.734 193.994 164.477 193.994H227.175C228.918 194.002 230.014 194.905 229.626 196.913Z" fill="white"/>
<path opacity="0.2" d="M197.635 228.227C197.635 233.504 192.691 237.793 189.062 237.793C185.433 237.793 183.288 233.504 184.296 228.227C185.303 222.949 188.933 218.847 192.467 218.684C191.432 223.961 193.645 228.227 197.233 228.227C197.367 228.241 197.501 228.241 197.635 228.227Z" fill="#333333"/>
</svg>
